<?xml version="1.0" standalone="no"?>
<!DOCTYPE svg PUBLIC "-//W3C//DTD SVG 1.1//EN" "http://www.w3.org/Graphics/SVG/1.1/DTD/svg11.dtd" >
<svg xmlns="http://www.w3.org/2000/svg">
<metadata>Generated by IcoMoon</metadata>
<defs>
<font id="enovathemes-globax" horiz-adv-x="1024">
<font-face units-per-em="1024" ascent="960" descent="-64" />
<missing-glyph horiz-adv-x="1024" />
<glyph unicode="&#x20;" horiz-adv-x="512" d="" />
<glyph unicode="&#xa900;" glyph-name="menu" d="M38.642 699.17h946.717c21.33 0 38.642 17.311 38.642 38.642s-17.311 38.642-38.642 38.642h-946.717c-21.33 0-38.642-17.311-38.642-38.642s17.311-38.642 38.642-38.642zM38.642 409.358h946.717c21.33 0 38.642 17.311 38.642 38.642s-17.311 38.642-38.642 38.642h-946.717c-21.33 0-38.642-17.311-38.642-38.642s17.311-38.642 38.642-38.642zM38.642 119.547h946.717c21.33 0 38.642 17.311 38.642 38.642s-17.311 38.642-38.642 38.642h-946.717c-21.33 0-38.642-17.311-38.642-38.642s17.311-38.642 38.642-38.642z" />
<glyph unicode="&#xa901;" glyph-name="search" d="M990 27.6l-235.6 235.6c58.4 71.2 93.6 162.4 93.6 261.8 0 228-185 413-413 413-228.2 0-413-185-413-413s184.8-413 413-413c99.4 0 190.4 35 261.6 93.4l235.6-235.4c16-16 41.8-16 57.8 0 16 15.8 16 41.8 0 57.6zM435 194.2c-182.6 0-331 148.4-331 330.8s148.4 331 331 331c182.4 0 331-148.6 331-331s-148.6-330.8-331-330.8z" />
<glyph unicode="&#xa903;" glyph-name="hours-delivery" d="M337.287 293.252c0 96.092 124.608 111.464 124.608 164.4 0 23.259-18.002 37.165-40.527 37.165-31.143 0-48.046-31.541-48.046-31.541l-36.034 24.022c0 0 24.389 53.303 88.206 53.303 46.915 0 86.709-28.515 86.709-78.823 0-85.579-119.351-100.218-120.482-150.524h124.608v-41.658h-176.78c-1.131 8.617-2.262 16.136-2.262 23.656zM543.47 367.947l114.858 168.162h57.428v-157.647h34.538v-40.192h-34.538v-68.676h-47.678v68.676h-124.608v29.678zM668.077 378.461v82.551c0 13.141 1.894 27.782 1.894 27.782h-0.765c0 0-5.99-14.242-13.141-24.389l-61.555-85.211v-0.733h73.567zM903.155 392.588l-9.275-33.221c-52.718-188.841-245.080-308.003-435.368-260.773-182.77 45.36-296.361 222.462-269.047 402.895l55.072-15.373c12.765-3.564 24.603 8.028 21.305 20.866l-59.891 233.211c-3.296 12.837-19.252 17.291-28.722 8.018l-172.047-168.461c-9.47-9.273-5.351-25.322 7.417-28.886l59.944-16.734c-44.735-244.071 105.838-487.157 351.551-551.142 255.145-66.443 515.386 91.487 586.279 345.432l8.866 31.761c2.557 9.159-2.794 18.655-11.953 21.213l-82.919 23.149c-9.159 2.558-18.656-2.796-21.213-11.953zM1001.136 537.905l-86.956-11.297c-9.43-1.225-16.079-9.862-14.856-19.292l3.427-26.373c1.225-9.43 9.864-16.081 19.292-14.855l86.956 11.297c9.43 1.225 16.079 9.862 14.856 19.292l-3.428 26.373c-1.223 9.428-9.86 16.079-19.29 14.855zM934.194 702.22l-76.39-43.050c-8.284-4.668-11.215-15.168-6.547-23.453l13.056-23.169c4.668-8.284 15.168-11.215 23.453-6.547l76.39 43.050c8.284 4.668 11.215 15.168 6.547 23.453l-13.056 23.169c-4.668 8.284-15.169 11.215-23.453 6.547zM810.577 829.494l-54.704-68.531c-5.933-7.431-4.715-18.266 2.716-24.196l20.786-16.591c7.431-5.933 18.265-4.717 24.196 2.716l54.704 68.531c5.933 7.432 4.715 18.266-2.716 24.198l-20.786 16.591c-7.431 5.93-18.265 4.715-24.196-2.717zM648.281 901.192l-25.048-84.033c-2.717-9.112 2.47-18.703 11.58-21.419l25.488-7.596c9.111-2.717 18.701 2.47 21.419 11.58l25.048 84.033c2.716 9.112-2.47 18.701-11.582 21.419l-25.486 7.596c-9.112 2.717-18.703-2.468-21.419-11.58zM470.946 906.873l8.254-87.298c0.895-9.467 9.296-16.416 18.762-15.521l26.477 2.505c9.467 0.895 16.416 9.295 15.521 18.762l-8.256 87.298c-0.895 9.467-9.296 16.414-18.762 15.519l-26.477-2.503c-9.465-0.895-16.414-9.295-15.519-18.762zM304.395 845.707l40.356-77.847c4.375-8.441 14.768-11.737 23.211-7.36l23.611 12.238c8.441 4.377 11.737 14.768 7.36 23.211l-40.356 77.847c-4.375 8.441-14.768 11.737-23.211 7.36l-23.611-12.239c-8.441-4.374-11.736-14.766-7.36-23.209z" />
<glyph unicode="&#xa904;" glyph-name="hours-phone-service" d="M567.711 927.25c-154.248 0-290.766-77.002-373.4-194.51 17.102-11.157 33.772-26.457 49.895-46.125 61.647 92.178 161.325 156.851 276.654 170.754l46.845-79.271 46.845 79.273c177.279-21.365 318.193-162.272 339.568-339.55l-79.285-46.851 79.286-46.853c-14.289-118.523-82.168-220.563-178.465-281.72 6.134-13.983 9.589-28.28 10.2-43.021 0.45-10.772-0.661-20.95-2.895-30.613 143.342 77.021 241.042 228.394 241.042 402.199 0 251.604-204.685 456.289-456.289 456.289zM684.151 175.787c-105.186 84.535-134.599 42.981-182.326-4.739-33.32-33.332-117.64 36.272-190.446 109.081-72.811 72.819-142.401 157.125-109.084 190.451 47.73 47.721 89.272 77.151 4.713 182.309-84.53 105.196-140.88 24.434-187.113-21.802-53.375-53.357-2.813-252.195 193.705-448.743 196.544-196.521 395.381-247.050 448.724-193.713 46.227 46.237 127.013 102.581 21.825 187.156zM363.798 399.554c0 93.499 109.461 110.155 109.461 146.641 0 17.704-14.172 25.137-27.28 25.137-24.089 0-37.537-26.91-37.537-26.91l-46.048 30.812c0 0 23.38 54.546 89.259 54.546 41.439 0 86.421-23.734 86.421-77.57 0-78.989-102.012-94.225-103.785-126.81h107.687v-53.126h-175.338c-1.775 9.915-2.839 18.765-2.839 27.28zM567.87 471.092l97.772 154.445h75.798v-140.628h30.103v-51.352h-30.103v-61.286h-61.286v61.286h-112.282v37.535h-0.002zM680.152 484.911v56.673c0 13.817 2.128 28.344 2.128 28.344h-0.709c0 0-5.306-15.591-12.398-26.217l-38.244-58.094v-0.709l49.224 0.003z" />
<glyph unicode="&#xa905;" glyph-name="hours-symbol" d="M971.354 344.767c13.488-13.048 18.238-32.693 12.398-50.526-64.967-198.486-251.894-342.274-471.683-342.274-170.399 0-326.272 86.076-417.127 227.574-3.914 6.095-11.252 9.005-18.218 7.019l-55.832-15.911c-12.134-3.459-23.46 7.519-20.383 19.757l48.299 192.047 9.495 37.985c3.060 12.243 18.233 16.576 27.298 7.795l170.428-165.005c9.064-8.774 5.229-24.069-6.9-27.531l-61.688-17.609c73.904-104.549 194.022-167.802 324.627-167.802 176.262 0 326.078 115.204 378.024 274.29 11.318 34.664 54.193 46.37 80.403 21.019l0.858-0.83zM935.675 706.258c-89.965 147.483-249.247 237.776-423.604 237.776-219.945 0-406.731-143.792-471.685-342.278-5.836-17.835-1.088-37.476 12.402-50.522l0.85-0.823c26.212-25.352 69.090-13.642 80.406 21.025 51.916 159.080 201.628 274.275 378.027 274.275 130.44 0 250.557-63.090 324.463-167.638l-61.689-17.609c-12.131-3.462-15.962-18.757-6.9-27.533l170.59-165.169c9.069-8.781 24.238-4.447 27.3 7.797l9.497 37.985 48.16 192.218c3.065 12.236-8.262 23.202-20.393 19.74l-67.423-19.245zM503.936 484.333l-27.742-42.123v-0.509h35.71v41.094c0 10.026 1.538 20.547 1.538 20.547h-0.509c0 0-3.86-11.304-8.997-19.009zM777.502 448.064c0-146.631-118.868-265.498-265.498-265.498s-265.498 118.866-265.498 265.498c0 146.63 118.866 265.496 265.498 265.496 146.63 0 265.498-118.866 265.498-265.496zM411.381 398.536h-78.094c1.285 23.636 75.264 34.679 75.264 91.964 0 39.046-32.619 56.257-62.677 56.257-47.775 0-64.73-39.555-64.73-39.555l33.396-22.346c0 0 9.76 19.516 27.228 19.516 9.504 0 19.777-5.398 19.777-18.238 0-26.453-79.377-38.524-79.377-106.346 0-6.167 0.775-12.583 2.060-19.777h127.154v38.524h-0.002zM578.184 441.701h-21.837v101.977h-54.98l-70.897-112.001v-27.223h81.43v-44.444h44.445v44.444h21.837v37.247h0.002zM739.44 360.009v85.799c0 37.247-20.808 49.58-47.521 49.58-17.468 0-32.878-7.966-40.324-21.069h-0.522c0 0 0.522 4.63 0.522 11.304v58.055h-44.444v-183.669h44.444v58.562c0 6.169 0.509 11.825 2.307 16.963 3.86 11.55 12.842 19.516 26.453 19.516 9.765 0 14.641-5.137 14.641-17.47v-77.571h44.444z" />
<glyph unicode="&#xa906;" glyph-name="airplane-around-earth" d="M1024 465.281c0-235.172-173.463-430.589-399.159-465.045 1.904 10.437 2.438 21.246 1.156 32.199 0 0-1.349 11.525-3.112 26.609 80.131 13.652 152.477 50.42 209.82 103.299-3.442 2.863-6.87 6.576-10.25 11.505-15.229 22.222 4.685 44.271 4.685 63.704 0 19.061-38.428 17.493-39.836 30.118-4.856 43.721 26.83 44.316 43.722 61.209s-16.697 55.298-38.393 52.82c-21.844-2.332-83.329 10.088-77.71 57.13 6.845 57.295-72.997 52.241-84.43 78.984-16.667 38.981 11.040 86.794 47.178 97.656 51.187 15.385 101.612 57.143 97.673 103.628-4.462 52.647-28.292 100.128-67.54 128.333-40.843 16.546-84.883 26.778-130.96 29.36-41.122-1.626-77.277-10.765-75.627-29.592 4.044-46.137 135.242-58.12 113.226-101.249-11.478-22.483-97.621-54.215-81.533-87.676 10.464-21.76 36.216-3.11 26.602-44.885-4.424-19.222-21.278-55.338-47.198-57.669-26.505-2.475-48.576 67.743-120.722 70.045-34.107 1.091-82.156-53.215-41.357-91.742 24.707-23.331 71.069 28.041 84.753-12.089 9.643-28.279-1.298-87.684 43.706-112.511 16.406-9.050 41.556-16.94 66.429-29.579-36.919-7.539-82.283-21.608-135.851-42.242l-45.133 11.908c18.894 15.728 49.592 26.8 41.869 61.167-11.346 50.492-99.017 31.45-159.458 91.889-18.542 18.539-58.092 80.101-57.93 154.063-30.128-57.227-47.275-122.308-47.275-191.349 0-21.251 1.621-42.133 4.739-62.528-0.711 0.012-1.414 0.136-2.123 0.136-19.034 0-37.702-3.999-55.003-11.56-3.822 24.102-5.861 48.789-5.861 73.951 0 259.405 211.046 470.458 470.449 470.458 259.408 0.003 470.454-211.049 470.454-470.454zM671.103 328.159l-114.899-52.815 1.782 25.036 74.434 33.601c-10.616 0.76-21.616 1.049-32.599 1.049-41.126 0-110.609-20.818-187.459-51.322l-246.474 65.012c-23.033 6.077-47.556 2.334-67.73-10.34l-12.119-7.613c-11.831-7.432-11.957-24.633-0.236-32.239l148.16-96.122c-35.393-18.101-68.973-36.484-98.575-54.041l-76.027 40.251c-12.419 6.574-27.101 7.354-40.143 2.13l-7.196-2.885c-10.732-4.295-15.228-17.058-9.556-27.133l41.9-74.404c-15.802-13.595-24.807-24.869-24.807-32.671 0-23.351 28.736-29.187 54.065-29.187 45.176 0 641.785 136.602 641.785 260.359-0.003 24.509-16.765 36.767-44.306 43.334zM419.557 86.533l131.284 46.247c5.783 2.038 11.962-1.817 12.675-7.908l11.51-98.409c2.876-24.591-10.35-48.255-32.801-58.693l-12.313-5.722c-7.69-3.574-16.812-1.658-22.416 4.705l-91.939 104.441c-4.476 5.087-2.391 13.086 4.001 15.338z" />
<glyph unicode="&#xa907;" glyph-name="airplane-frontal-view" d="M1008.141 364.624l-340.023 58.314c-14.51 63.204-66.309 112.006-131.052 122.201l-15.578 116.010c-0.631 4.692-4.635 8.192-9.368 8.192h-0.244c-4.733 0-8.736-3.502-9.367-8.192l-15.579-116.010c-64.741-10.193-116.54-58.997-131.052-122.201l-340.020-58.314c-9.112-1.355-15.859-9.179-15.859-18.394v-0.348c0-10.272 8.326-18.596 18.596-18.596h73.644c-0.847-4.417-1.325-8.962-1.325-13.625 0-39.816 32.276-72.093 72.092-72.093s72.092 32.278 72.092 72.093c0 4.663-0.482 9.208-1.325 13.625h129.519c23.688-58.952 81.288-100.626 148.709-100.626 67.423 0 125.023 41.673 148.711 100.626h129.518c-0.847-4.417-1.327-8.962-1.327-13.625 0-39.816 32.276-72.093 72.093-72.093s72.092 32.278 72.092 72.093c0 4.663-0.48 9.208-1.325 13.625h73.643c10.272 0 18.596 8.326 18.596 18.596v0.348c-0.002 9.214-6.746 17.038-15.86 18.394zM427.56 421.197l19.896 41.228h129.089l19.896-41.228h-168.881z" />
<glyph unicode="&#xa908;" glyph-name="airplane-vertical" d="M617.096 682.019c0 222.929-62.484 277.981-105.096 277.981s-105.094-55.052-105.094-277.981l-347.312-243.228c-4.002-2.803-7.278-9.094-7.278-13.98v-93.502c0-11.701 9.347-19.2 20.769-16.663l331.987 73.725c12.579-98.719 33.886-187.029 47.48-277.743l-127.291-98.179c-3.556-2.819-6.464-8.836-6.464-13.372v-45.401c0-14.463 10.809-21.479 24.019-15.588l169.183 75.431 169.179-75.433c13.212-5.891 24.019 1.126 24.019 15.588v45.401c0 4.536-2.908 10.555-6.46 13.372l-127.291 98.179c13.591 90.714 34.898 179.026 47.48 277.743l331.987-73.723c11.421-2.538 20.768 4.961 20.768 16.663v93.502c0 4.887-3.274 11.18-7.278 13.981l-347.308 243.227zM512 857.086c-21.442 0-41.646-4.722-59.681-12.9 6.433 25.053 30.631 43.749 59.681 43.749 29.052 0 53.248-18.695 59.678-43.749-18.030 8.18-38.238 12.9-59.678 12.9z" />
<glyph unicode="&#xa909;" glyph-name="air-transport" d="M1024 632.517c0-177.142-853.959-372.667-918.622-372.667-36.253 0-77.386 8.356-77.386 41.778 0 11.167 12.889 27.307 35.505 46.764l-0.025-0.013-59.944 106.509c-8.117 14.42-1.682 32.688 13.678 38.838l10.302 4.124c18.671 7.476 39.685 6.362 57.459-3.047l108.823-57.612c42.371 25.132 90.435 51.444 141.094 77.35l-212.070 137.586c-16.777 10.886-16.598 35.505 0.336 46.144l17.348 10.899c28.873 18.139 63.973 23.497 96.942 14.801l352.795-93.057c110 43.661 209.453 73.46 268.32 73.46 15.721 0 31.466-0.417 46.661-1.503l-106.541-48.096-2.55-35.837 164.459 75.6c39.422-9.402 63.414-26.949 63.414-62.024zM594.81 326.733l131.594-149.491c8.020-9.111 21.081-11.853 32.085-6.738l17.624 8.192c32.139 14.938 51.068 48.811 46.952 84.010l-16.474 140.86c-1.021 8.716-9.865 14.232-18.143 11.318l-187.914-66.195c-9.146-3.224-12.134-14.676-5.724-21.956z" />
<glyph unicode="&#xa90a;" glyph-name="barscode" d="M56.64 273.928h-42.108c-8.025 0-14.532 6.507-14.532 14.533v554.563c0 8.025 6.507 14.532 14.532 14.532h42.108c8.026 0 14.532-6.507 14.532-14.532v-554.565c0-8.025-6.505-14.532-14.532-14.532zM231.476 857.556h-71.506c-8.025 0-14.532-6.507-14.532-14.532v-554.565c0-8.026 6.507-14.533 14.532-14.533h71.506c8.026 0 14.532 6.507 14.532 14.533v554.565c0 8.026-6.505 14.532-14.532 14.532zM362.215 857.556h-21.221c-8.025 0-14.532-6.507-14.532-14.532v-554.565c0-8.026 6.507-14.533 14.532-14.533h21.221c8.025 0 14.532 6.507 14.532 14.533v554.565c0.002 8.026-6.505 14.532-14.532 14.532zM539.323 857.592h-88.469c-7.985 0-14.532-6.547-14.532-14.532v-288.4c29.383 42.317 69.943 76.332 117.531 97.732v190.67c0.002 7.985-6.387 14.53-14.53 14.53zM642.963 857.592h-0.32c-7.985 0-14.533-6.547-14.533-14.532v-168.475c9.743 1.437 19.484 2.557 29.385 3.034v165.443c-0.002 7.985-6.39 14.53-14.532 14.53zM725.042 857.592h-9.581c-7.983 0-14.532-6.547-14.532-14.532v-166.554c13.093-1.278 26.030-3.514 38.646-6.708v173.263c-0.002 7.985-6.549 14.53-14.533 14.53zM831.875 857.592h-46.789c-7.983 0-14.532-6.547-14.532-14.532v-182.525c27.466-10.061 53.019-24.273 75.853-41.838v224.365c0 7.985-6.547 14.53-14.532 14.53zM1007.624 133.818l-120.077 120.076c25.142 39.553 39.921 86.31 39.921 136.548 0 140.882-114.621 255.503-255.503 255.503s-255.503-114.621-255.503-255.503 114.621-255.503 255.503-255.503c50.236 0 96.996 14.778 136.547 39.921l120.079-120.079c10.914-10.914 25.217-16.372 39.518-16.372 14.299 0 28.6 5.458 39.516 16.372 21.834 21.817 21.834 57.217 0 79.037zM496.305 390.442c0 96.86 78.801 175.658 175.658 175.658s175.66-78.801 175.66-175.658c0-96.857-78.799-175.656-175.656-175.656-96.86-0.002-175.661 78.796-175.661 175.656z" />
<glyph unicode="&#xa90b;" glyph-name="delivery-small-truck" d="M251.69 303.139c-53.317 0-96.539-43.222-96.539-96.539s43.222-96.539 96.539-96.539 96.539 43.222 96.539 96.539-43.22 96.539-96.539 96.539zM251.69 158.33c-26.659 0-48.269 21.611-48.269 48.269s21.611 48.27 48.269 48.27 48.269-21.611 48.269-48.27c0-26.657-21.609-48.269-48.269-48.269zM756.795 303.139c-53.317 0-96.537-43.222-96.537-96.539s43.22-96.539 96.537-96.539c53.318 0 96.539 43.222 96.539 96.539s-43.222 96.539-96.539 96.539zM756.795 158.33c-26.659 0-48.269 21.611-48.269 48.269s21.611 48.27 48.269 48.27c26.659 0 48.27-21.611 48.27-48.27-0.002-26.657-21.611-48.269-48.27-48.269zM1008.001 337.94h-15.999v146.062c0 16.846-13.061 30.809-29.872 31.93l-60.26 4.016c-18.663 1.245-35.474 11.724-44.805 27.932l-45.369 101.863c-39.933 96.115-96.187 136.194-151.328 136.194h-588.368c-39.764 0.002-72-32.233-72-71.998v-432.001c0-39.765 32.236-72 72-72h52.289c1.79 68.784 58.184 124.229 127.399 124.229 69.217 0 125.609-55.445 127.399-124.229h250.308c1.79 68.784 58.182 124.229 127.399 124.229s125.609-55.445 127.401-124.229h123.805c8.836 0 15.999 7.163 15.999 15.999v96c0 8.838-7.163 16.003-15.999 16.003zM752.379 528.971h-173.384c-8.568 0-15.514 6.945-15.514 15.514v139.717c0 8.57 6.945 15.514 15.514 15.514h91.265c11.572 0 22.185-6.44 27.526-16.707l68.357-131.365c5.374-10.325-2.122-22.674-13.764-22.674z" />
<glyph unicode="&#xa90c;" glyph-name="opened-umbrella" d="M1013.661 373.536c-24.382 17.522-61.39 28.707-102.847 28.707-64.187 0-117.743-26.803-130.204-62.444h-5.346c-12.156 35.873-65.876 62.912-130.339 62.912-41.524 0-78.513-11.256-102.884-28.828v-301.709c0-75.088-61.087-136.175-136.175-136.175s-136.175 61.087-136.175 136.175c0 16.595 13.446 30.039 30.039 30.039s30.039-13.444 30.039-30.039c0-41.959 34.135-76.096 76.096-76.096s76.096 34.135 76.096 76.096v301.217c-24.377 17.584-61.386 28.851-102.929 28.851-64.187 0-117.743-26.803-130.202-62.444h-5.348c-12.156 35.873-65.876 62.912-130.341 62.912-41.43 0-78.421-11.17-102.802-28.672 19.593 213.922 220.879 383.967 471.622 396.629v22.454c0 16.593 13.446 30.039 30.039 30.039s30.039-13.446 30.039-30.039v-22.458c250.918-12.69 452.297-182.983 471.621-397.13zM335.606 911.936c0 0-58.99-41.777-67.413-57.731s-2.316-35.716 13.638-44.139c15.954-8.423 35.716-2.316 44.139 13.638 8.421 15.956 9.636 88.231 9.636 88.231zM467.941 960c0 0-58.99-41.777-67.413-57.731s-2.316-35.716 13.638-44.137c15.956-8.423 35.716-2.316 44.139 13.638s9.636 88.23 9.636 88.23zM623.986 960c0 0-58.99-41.777-67.413-57.731-8.421-15.954-2.316-35.716 13.638-44.137s35.716-2.316 44.137 13.638c8.423 15.954 9.638 88.23 9.638 88.23zM748.244 915.307c0 0-58.99-41.777-67.413-57.731-8.421-15.954-2.316-35.716 13.638-44.137 15.954-8.423 35.716-2.316 44.139 13.638s9.636 88.23 9.636 88.23z" />
<glyph unicode="&#xa90d;" glyph-name="boat-from-front-view" d="M334.547 898.995c0 33.692 27.312 61.005 61.005 61.005 28.036 0 51.407-19.021 58.545-44.785 0.832 0.044 1.615 0.248 2.458 0.248 25.327 0 45.857-20.532 45.857-45.859 0-6.177-1.26-12.054-3.474-17.431l0.018 0.002c15.701 0 28.429-12.726 28.429-28.428 0-15.7-12.726-28.429-28.429-28.429-15.7 0-28.428 12.726-28.428 28.429 0 0.848 0.176 1.648 0.249 2.478-4.503-1.477-9.226-2.478-14.222-2.478-15.313 0-28.787 7.581-37.117 19.116-7.339-3.127-15.407-4.872-23.888-4.872-33.692 0-61.005 27.313-61.005 61.005zM362.235 596.786h-83.555c-14.659 0-26.542-11.883-26.542-26.542v-177.706l259.857 124.475 259.867-124.475v177.706c0 14.659-11.883 26.542-26.54 26.542h-83.556zM661.765 623.328v16.265c0 14.659-11.883 26.542-26.54 26.542h-64.467l-11.527 105.629h-94.461l-11.525-105.629h-64.467c-14.659 0-26.542-11.883-26.542-26.542v-16.265h299.528zM512 487.58l-386.097-184.942 114.332-333.533c53.076 24.681 121.285 47.698 191.205 47.698 112.357 0 202.66-53.516 321.277-80.802h19.702l125.678 366.637-386.097 184.942z" />
<glyph unicode="&#xa90e;" glyph-name="boxes-piles-stored" d="M1003.458 675.737l-470.403 192.142c-16.133 6.589-34.215 6.539-50.31-0.142l-462.377-191.934c-12.331-5.12-20.368-17.157-20.368-30.509v-68.785c0-18.245 14.789-33.032 33.032-33.032h24.775c4.561 0 8.259-3.696 8.259-8.259v-437.679c0-41.047 33.275-74.324 74.324-74.324h21.586v397.121h700.050v-397.119h21.586c41.047 0 74.324 33.275 74.324 74.324v437.677c0 4.561 3.698 8.259 8.259 8.259h24.775c18.245 0 33.032 14.789 33.032 33.032v68.65c-0.003 13.419-8.123 25.505-20.544 30.579zM330.323 543.475h-165.162v74.324h165.16l0.002-74.324zM594.578 543.475h-165.16v74.324h165.16v-74.324zM858.838 543.475h-165.163v74.324h165.162l0.002-74.324zM373.289 188.319h-47.005v-64.847h-21.959v64.847h-47.295c-17.093 0-30.949-13.856-30.949-30.949v-103.203c0-17.093 13.857-30.948 30.949-30.948h116.257c17.093 0 30.949 13.854 30.949 30.948v103.203c0.002 17.093-13.856 30.949-30.948 30.949zM570.188 188.319h-47.005v-64.847h-21.959v64.847h-47.293c-17.093 0-30.949-13.856-30.949-30.949v-103.203c0-17.093 13.857-30.948 30.949-30.948h116.256c17.093 0 30.949 13.854 30.949 30.948v103.203c0.003 17.093-13.854 30.949-30.948 30.949zM770.746 188.319h-47.005v-64.847h-21.959v64.847h-47.293c-17.093 0-30.949-13.856-30.949-30.949v-103.203c0-17.093 13.856-30.948 30.949-30.948h116.256c17.093 0 30.949 13.854 30.949 30.948v103.203c0.003 17.093-13.856 30.949-30.948 30.949zM472.147 374.554h-47.005v-64.848h-21.959v64.848h-47.293c-17.093 0-30.949-13.857-30.949-30.949v-103.203c0-17.093 13.857-30.949 30.949-30.949h116.257c17.093 0 30.949 13.856 30.949 30.949v103.203c0.002 17.092-13.857 30.949-30.949 30.949zM673.851 374.554h-47.007v-64.848h-21.957v64.848h-47.293c-17.093 0-30.949-13.857-30.949-30.949v-103.203c0-17.093 13.857-30.949 30.949-30.949h116.257c17.093 0 30.948 13.856 30.948 30.949v103.203c0.002 17.092-13.854 30.949-30.948 30.949z" />
<glyph unicode="&#xa90f;" glyph-name="boxes-storage-for-delivery" d="M994.538 748.844h-178.866v72.527c0 16.274-13.195 29.467-29.467 29.467h-548.402c-16.274 0-29.467-13.193-29.467-29.467v-72.529h-178.87c-16.274 0.002-29.467-13.192-29.467-29.465v-518.264c0-16.275 13.193-29.467 29.467-29.467h178.868v-48.873c0-8.856 7.178-16.033 16.033-16.033h20.641v-45.546c0-8.856 7.178-16.033 16.033-16.033h96.646c8.855 0 16.033 7.176 16.033 16.033v45.546h277.253v-45.546c0-8.856 7.178-16.033 16.031-16.033h96.648c8.855 0 16.031 7.176 16.031 16.033v45.546h19.951c8.855 0 16.031 7.18 16.031 16.033v48.873h178.868c16.275 0 29.467 13.193 29.467 29.467v518.264c0.005 16.274-13.188 29.467-29.462 29.467zM750.636 212.926h-477.268v514.226h477.268v-514.226zM466.672 402.513h-49.038v-24.303h-22.908v24.303h-49.34c-17.833 0-32.288-14.458-32.288-32.288v-107.668c0-17.833 14.457-32.288 32.288-32.288h121.286c17.833 0 32.288 14.455 32.288 32.288v107.668c0.002 17.83-14.457 32.288-32.288 32.288zM416.245 308.895v-47.444h-28.659v47.444c-19.535 0-19.531 0-20.261 0l34.716 41.086 34.589-41.236c0 0-0.199 0.151-20.385 0.151zM678.617 402.513h-49.038v-24.303h-22.908v24.303h-49.338c-17.831 0-32.288-14.458-32.288-32.288v-107.668c0-17.833 14.457-32.288 32.288-32.288h121.284c17.833 0 32.29 14.455 32.29 32.288v107.668c0 17.83-14.457 32.288-32.29 32.288zM628.189 308.895v-47.444h-28.659v47.444c-19.536 0-19.531 0-20.261 0l34.716 41.086 34.589-41.236c0.002 0-0.194 0.151-20.385 0.151zM572.645 602.917h-49.038v-24.303h-22.908v24.303h-49.338c-17.833 0-32.288-14.457-32.288-32.288v-107.666c0-17.831 14.457-32.29 32.288-32.29h121.284c17.831 0 32.29 14.458 32.29 32.29v107.666c0 17.831-14.457 32.288-32.29 32.288zM522.216 509.301v-47.447h-28.659v47.447c-19.536 0-19.531 0-20.261 0l34.716 41.084 34.589-41.233c0.002-0.002-0.196 0.149-20.385 0.149z" />
<glyph unicode="&#xa910;" glyph-name="box-of-packing-for-delivery" d="M877.67 851.488c-11.617 14.574-29.241 23.063-47.877 23.063h-635.588c-18.636 0-36.258-8.488-47.874-23.063l-122.974-154.279c-12.847-16.116-23.358-46.169-23.358-66.779v-532.452c0-42.267 34.264-76.529 76.529-76.529h870.942c42.267 0 76.529 34.264 76.529 76.529v532.452c0 20.612-10.511 50.663-23.358 66.781l-122.972 154.278zM804.004 339.449c-9.447 0-15.352 10.227-10.628 18.41l47.576 82.4c4.723 8.182 16.533 8.182 21.256 0.002l47.584-82.402c4.723-8.182-1.181-18.41-10.63-18.41h-19.968v-153.598c0-6.78-5.495-12.273-12.273-12.273h-30.682c-6.78 0-12.273 5.493-12.273 12.273v153.598h-19.963zM619.907 339.449c-9.447 0-15.353 10.227-10.628 18.41l47.574 82.4c4.723 8.182 16.533 8.182 21.256 0.002l47.583-82.402c4.727-8.182-1.18-18.41-10.628-18.41h-19.966v-153.598c0-6.78-5.495-12.273-12.273-12.273h-30.682c-6.78 0-12.273 5.493-12.273 12.273v153.598h-19.963zM933.080 104.227c0-3.388-2.747-6.137-6.136-6.137h-338.624c-3.388 0-6.137 2.749-6.137 6.137v18.409c0 3.388 2.749 6.137 6.137 6.137h338.623c3.388 0 6.136-2.747 6.136-6.137l0.002-18.409zM104.269 749.606h277.854l27.419 45.081h-269.339l30.066 37.721c5.841 7.329 14.567 11.532 23.937 11.532h635.588c9.373 0 18.096-4.203 23.94-11.532l30.066-37.721h-274.138l15.305-45.081h294.763l40.724-51.093h-896.907l40.722 51.093z" />
<glyph unicode="&#xa911;" glyph-name="call-center-service-for-information" d="M709.53 956.918c-173.677 0-314.468-111.427-314.468-248.881 0-81.888 50.194-154.313 127.316-199.668-7.543-41.353-31.562-90.072-65.148-123.66 82 6.121 154.172 29.634 201.428 77.993 16.6-2.142 33.511-3.546 50.874-3.546 173.678 0 314.47 111.427 314.47 248.881-0.002 137.452-140.795 248.881-314.472 248.881zM714.995 872.217c23.159 0 41.93-18.773 41.93-41.93 0-23.155-18.772-41.929-41.93-41.929s-41.929 18.773-41.929 41.929c0.002 23.157 18.772 41.93 41.929 41.93zM783.937 561.982h-137.884v36.101h37.435v117.651h-37.435v36.099h103.79v-153.751h34.093v-36.101zM648.495 135.329c-99.704 80.128-127.585 40.739-172.825-4.494-31.582-31.595-111.509 34.383-180.52 103.399-69.016 69.023-134.979 148.935-103.399 180.523 45.242 45.235 84.619 73.132 4.467 172.807-80.125 99.715-133.537 23.16-177.359-20.666-50.593-50.576-2.665-239.050 183.609-425.358 186.301-186.278 374.776-234.173 425.34-183.617 43.816 43.831 120.394 97.236 20.687 177.406zM124.453 533.504c-1.345-0.55-3.32-1.359-5.831-2.386-4.754-1.82-10.437-3.882-16.764-6.634-2.952-1.422-6.261-2.962-9.28-4.859-3.131-1.869-6.241-3.989-9.045-6.611-3.064-2.48-5.445-5.649-8.2-8.97-2.048-3.663-4.692-7.406-6.119-11.903-2.073-4.257-2.816-9.161-4.054-13.985-0.954-4.894-1.119-9.981-1.727-14.95-0.062-10.041 0.328-19.685 1.621-27.904 0.676-8.356 2.798-15.415 3.634-20.308 1.026-4.909 1.61-7.712 1.61-7.712s-1.508 2.438-4.146 6.706c-2.501 4.399-6.748 10.049-10.476 18.082-4.297 7.811-8.304 17.421-12.117 28.234-1.357 5.578-3.197 11.364-4.216 17.567-0.718 6.268-1.904 12.733-1.427 19.541-0.206 6.797 1.185 13.665 2.448 20.605 2.010 6.725 4.15 13.54 7.429 19.603 2.995 6.198 6.766 11.808 10.534 16.699 3.791 5.041 7.703 9.167 11.391 13.006 7.357 7.238 13.745 12.527 17.467 15.773 2.13 1.784 3.002 2.749 3.952 3.596 0.84 0.786 1.288 1.206 1.288 1.206l34.192-53.477c0.005 0-0.75-0.32-2.163-0.92zM637.602 25.483c-3.355-4.176-8.615-10.637-15.75-17.957-3.802-3.604-7.724-7.509-12.606-11.199-4.571-3.82-10.131-7.317-15.792-10.598-5.836-3.209-12.045-5.96-18.603-8.006-6.49-1.978-13.227-3.572-19.841-4.111l-9.838-0.703-9.544 0.514c-6.28 0.082-12.129 1.755-17.763 2.692-5.619 1.042-10.714 3.131-15.593 4.529-4.879 1.317-9.254 3.723-13.302 5.324-8.199 3.254-14.072 7.016-18.501 9.343-4.35 2.399-6.833 3.768-6.833 3.768s2.803-0.432 7.708-1.183c4.874-0.654 11.99-2.194 20.231-2.359 4.15-0.085 8.406-0.81 13.123-0.373 4.655 0.363 9.51 0.127 14.369 0.997 4.826 0.967 9.833 1.242 14.48 2.997l6.981 2.14 6.475 3.027c17.097 8.281 26.398 22.869 31.789 35.049 2.667 6.281 4.576 11.826 6.019 16.166 1.569 4.568 2.465 7.176 2.465 7.176l55.383-31.013c-0.003-0.002-1.842-2.267-5.058-6.221z" />
<glyph unicode="&#xa912;" glyph-name="call-center-worker-with-headset" d="M431.583 397.683c0-29.038-23.539-52.579-52.577-52.579-29.037 0-52.575 23.539-52.575 52.579 0 29.037 23.539 52.577 52.575 52.577 29.038-0.002 52.577-23.542 52.577-52.577zM644.995 450.259c-29.037 0-52.577-23.539-52.577-52.579 0-29.037 23.54-52.575 52.577-52.575s52.579 23.539 52.579 52.575c-0.002 29.038-23.54 52.579-52.579 52.579zM1024 426.99v-99.922c0-50.166-40.667-90.833-90.835-90.833h-65.914c-65.313-181.348-232.097-290.885-355.251-290.885s-289.938 109.536-355.251 290.886h-65.914c-50.168 0-90.835 40.666-90.835 90.833v99.922c0 34.52 19.26 64.54 47.619 79.909 0.952 141.862 42.299 252.657 123.069 329.251 80.116 75.973 194.95 114.499 341.312 114.499s261.195-38.525 341.312-114.497c80.769-76.594 122.114-187.39 123.069-329.251 28.359-15.37 47.619-45.391 47.619-79.912zM831.747 397.35c0 23.373-1.196 45.334-2.963 66.614-40.312 36.882-113.497 64.868-205.859 75.267 12.127-13.637 22.603-31.575 28.956-55.187-56.574 44.569-167.623 33.961-251.62 133.697-4.815 5.57-8.98 10.893-12.581 15.757-0.042 0.059-0.089 0.104-0.131 0.161l0.010-0.003c-14.943 20.209-20.038 32.229-20.323 18.924-2.465-114.636-83.717-204.005-173.943-216.613-0.571-12.608-1.037-25.337-1.037-38.618 0-48.454 7.913-92.615 21.365-132.412 50.681-61.134 134.378-78.396 208.458-82.974 13.752 21.879 44.608 37.153 80.541 37.153 48.719 0 88.211-28.033 88.211-62.618 0-34.582-39.494-62.615-88.211-62.615-37.475 0-69.409 16.615-82.191 40.010-51.774 3.010-108.69 11.836-159.416 35.791 71.335-105.149 181.924-160.75 250.985-160.75 108.522 0 319.747 137.094 319.747 388.416zM921.692 517.824c-5.781 247.552-147.081 378.323-409.692 378.323s-403.909-130.771-409.692-378.323h34.948c12.778 83.438 39.785 152.057 80.791 204.82 65.344 84.075 164.243 126.707 293.953 126.707s228.61-42.632 293.957-126.707c41.002-52.761 68.011-121.382 80.789-204.82h34.947z" />
<glyph unicode="&#xa913;" glyph-name="chronometer" d="M976.695 331.222c-20.607-207.479-188.721-374.239-396.348-393.316-245.439-22.553-454.728 157.902-479.004 392.448h-43.256c-26.298 0-42.734 28.471-29.582 51.244l96.741 167.524c13.15 22.771 46.018 22.769 59.166-0.002l96.723-167.524c13.148-22.774-3.288-51.242-29.584-51.242h-37.657c24.464-175.116 187.494-306.45 374.416-279.053 138.319 20.271 250.515 129.399 274.025 267.205 35.189 206.257-123.531 385.77-323.382 385.77-64.81 0-127.363-18.803-181.096-54.411-24.937-16.525-59.506-13.255-77.801 10.412-19.919 25.771-13.7 62.559 12.862 80.496 57.65 38.945 123.005 63.284 191.478 71.759v63.5h-44.815c-15.419 0-27.919 12.499-27.919 27.919v28.13c0 15.42 12.499 27.919 27.919 27.919h207.83c15.419 0 27.919-12.499 27.919-27.919v-28.13c0-15.419-12.499-27.919-27.919-27.919h-49.363v-64.162c228.981-30.896 402.696-238.483 378.646-480.648zM991.155 753.753l-84.182 77.812c-11.324 10.466-28.987 9.772-39.454-1.551l-22.269-24.092c-10.468-11.323-9.773-28.987 1.551-39.454l84.182-77.811c11.324-10.464 28.987-9.772 39.454 1.551l22.269 24.092c10.468 11.323 9.773 28.987-1.551 39.452zM537.63 646.879v-273.057h270.331c0.003 166.29-126.163 273.057-270.331 273.057z" />
<glyph unicode="&#xa914;" glyph-name="clipboard-verification-symbol" d="M519.754 886.858h-22.528c-12.037 0-21.795 9.76-21.795 21.795v0.733c0 27.954-22.662 50.614-50.616 50.614h-1.17c-27.954 0-50.614-22.66-50.614-50.614v-0.733c0-12.037-9.76-21.797-21.795-21.797h-22.528c-23.995 0-43.446-19.451-43.446-43.446v-0.878c0-23.995 19.451-43.446 43.446-43.446h191.051c23.994 0 43.445 19.453 43.445 43.446v0.88c-0.002 23.994-19.453 43.446-43.45 43.446zM424.229 886.858c-12.119 0-21.942 9.825-21.942 21.942 0 12.119 9.825 21.944 21.942 21.944 12.119 0 21.942-9.825 21.942-21.944s-9.823-21.942-21.942-21.942zM521.92 38.4h-368.32c-32.316 0-58.514 26.197-58.514 58.514v702.173c0 32.316 26.197 58.514 43.885 58.514h118.553c-0.989-4.859-1.523-9.895-1.523-15.072 0-40.087 32.614-72.701 72.707-72.701h191.043c40.095 0 72.706 32.614 72.706 73.586 0 4.857-0.52 9.592-1.431 14.187h89.202c46.948 0 73.144-26.197 73.144-58.514v-439.597c-4.862 0.303-9.69 0.74-14.627 0.74-20.236 0-39.774-2.851-58.517-7.703v344.161h-512v-585.144h337.197c1.603-25.712 7.222-50.323 16.494-73.142zM738.744 316.342c-105.029 0-190.17-85.144-190.17-190.171s85.139-190.171 190.17-190.171 190.17 85.144 190.17 190.171-85.141 190.171-190.17 190.171zM863.008 165.244l-117.029-131.658c-5.764-6.487-13.794-9.813-21.879-9.813-6.422 0-12.879 2.1-18.265 6.413l-73.144 58.514c-12.614 10.086-14.664 28.501-4.563 41.116 10.084 12.628 28.506 14.672 41.121 4.57l51.448-41.157 98.578 110.9c10.722 12.072 29.222 13.171 41.301 2.428 12.082-10.742 13.166-29.228 2.431-41.311zM607.086 448h-380.342c-8.080 0-14.629 6.551-14.629 14.629v14.629c0 8.080 6.551 14.629 14.629 14.629h380.342c8.078 0 14.63-6.551 14.63-14.629v-14.629c-0.003-8.078-6.552-14.629-14.63-14.629zM607.086 579.658h-380.342c-8.080 0-14.629 6.551-14.629 14.629v14.629c0 8.080 6.551 14.629 14.629 14.629h380.342c8.078 0 14.63-6.551 14.63-14.629v-14.629c-0.003-8.080-6.552-14.629-14.63-14.629zM533.942 330.971h-307.2c-8.080 0-14.629 6.551-14.629 14.629v14.629c0 8.080 6.551 14.629 14.629 14.629h307.2c8.082 0 14.63-6.549 14.63-14.629v-14.629c-0.003-8.078-6.549-14.629-14.63-14.629zM504.686 199.314h-277.942c-8.080 0-14.629 6.551-14.629 14.629v14.629c0 8.080 6.551 14.629 14.629 14.629h277.944c8.080 0 14.629-6.549 14.629-14.629v-14.629c-0.002-8.078-6.551-14.629-14.63-14.629z" />
<glyph unicode="&#xa915;" glyph-name="commercial-delivery" d="M1002.735 764.313l-111.944 140.441c-10.573 13.267-26.614 20.995-43.582 20.995h-578.577c-16.965 0-33.005-7.728-43.58-20.994l-111.942-140.443c-11.694-14.672-21.263-42.027-21.263-62.678v-102.872c8.891 13.988 21.887 24.487 37.471 29.858 0.872 11.756 4.436 23.157 10.531 33.539 10.56 17.987 27.499 30.777 47.689 36.029 7.238 1.891 13.866 2.747 20.492 2.747 26.696 0 50.887-13.58 65.052-34.913 4.218 0.735 8.475 1.116 12.748 1.116 13.108 0 25.495-3.604 36.285-9.815l62.007 16.128c7.77 2.028 15.755 3.047 23.756 3.047 42.886 0 80.372-29.008 91.176-70.549l121.519-467.048c6.34-24.367 2.803-49.742-9.934-71.459-12.75-21.716-33.2-37.158-57.568-43.5l-54.233-14.107h455.493c38.475 0 69.665 31.19 69.665 69.664l-0.002 624.021c0 18.763-9.567 46.118-21.261 60.791zM149.693 765.501l37.071 46.51h252.931l24.959 41.037h-245.179l27.368 34.337c5.317 6.671 13.26 10.498 21.79 10.498h578.578c8.532 0 16.474-3.827 21.79-10.498l27.368-34.337h-249.546l13.933-41.037h268.324l37.070-46.51h-816.458zM161 593.901l-15.636-4.068c-16.653-4.334-26.642-21.347-22.31-38l0.159-0.609c4.334-16.655 21.347-26.642 38.002-22.31l132.604 34.498c16.655 4.332 26.642 21.345 22.31 38.002l-0.159 0.609c-4.334 16.653-21.347 26.642-38 22.31l-15.636-4.068c-8.354-2.173-16.891 2.838-19.064 11.192l-0.134 0.509c-5.048 19.402-24.867 31.039-44.269 25.991l-0.812-0.211c-19.402-5.048-31.038-24.867-25.991-44.269l0.134-0.509c2.17-8.359-2.841-16.894-11.197-19.068zM203.742 637.54c8.411 2.189 17.005-2.858 19.192-11.267 2.189-8.411-2.856-17.005-11.269-19.192-8.411-2.187-17.003 2.858-19.192 11.267-2.187 8.411 2.858 17.005 11.269 19.192zM399.168 157.19c1.459-5.609-1.904-11.336-7.511-12.795l-192.918-50.186c-5.607-1.459-11.336 1.906-12.795 7.513l-2.642 10.151c-1.459 5.61 1.904 11.338 7.513 12.795l192.916 50.186c5.609 1.459 11.336-1.906 12.795-7.511l2.642-10.153zM422.696 358.442l2.642-10.153c1.459-5.609-1.904-11.336-7.513-12.793l-263.99-68.68c-5.609-1.459-11.336 1.906-12.795 7.511l-2.642 10.155c-1.459 5.609 1.904 11.336 7.513 12.793l263.99 68.676c5.609 1.461 11.336-1.901 12.795-7.509zM394.053 426.874l-263.99-68.676c-5.609-1.457-11.336 1.906-12.795 7.513l-2.642 10.153c-1.459 5.609 1.904 11.334 7.513 12.793l263.99 68.676c5.609 1.459 11.336-1.904 12.795-7.511l2.642-10.155c1.459-5.605-1.904-11.334-7.513-12.793zM388.19 241.059l-213.224-55.47c-5.609-1.457-11.336 1.906-12.795 7.513l-2.642 10.153c-1.459 5.609 1.904 11.336 7.513 12.795l213.222 55.466c5.609 1.461 11.336-1.904 12.795-7.511l2.642-10.153c1.461-5.607-1.902-11.336-7.511-12.793zM580.112 128.378l-121.504 467.061c-7.293 28.038-35.937 44.853-63.975 37.56l-61.915-16.108c1.464-3.023 2.679-6.216 3.557-9.586 7.397-28.438-9.35-56.964-37.178-64.204l-130.655-33.989c-26.671-6.939-55.388 6.795-64.341 32.858-1.687 4.909-2.598 9.843-2.859 14.704l-61.979-16.125c-28.038-7.293-44.853-35.937-37.56-63.973l121.504-467.061c7.295-28.039 35.937-44.855 63.975-37.56l355.374 92.449c28.036 7.293 44.852 35.935 37.557 63.973zM173.974 22.722l-105.656 406.138 355.372 92.449 105.657-406.138-355.374-92.449z" />
<glyph unicode="&#xa916;" glyph-name="container-hanging-of-a-crane" d="M776.423 405.815l-7.272-21.581-287.831 97.912c-1.252-0.114-2.5-0.228-3.75-0.228s-2.5 0.228-3.75 0.228l-288.060-97.914-7.27 21.581 261.025 88.713c-0.681 0.453-1.476 0.909-2.158 1.362-15.449 12.38-24.308 30.67-24.308 50.434 0 9.315 7.61 17.038 17.038 17.038s17.038-7.724 17.038-17.038 4.203-17.947 11.473-23.739c7.384-5.906 16.697-7.951 26.239-5.793 10.79 2.5 19.65 11.359 22.15 22.15 1.817 8.404 0.453 16.809-3.976 23.739-4.429 6.815-11.587 11.699-19.536 13.29-13.29 2.726-23.060 14.426-23.060 27.83v38.619c5.451-1.25 11.13-1.931 17.038-1.931 5.906 0 11.587 0.681 17.038 1.931v-34.076c15.223-4.089 28.511-13.857 37.143-27.148 9.428-14.768 12.495-32.487 8.52-49.865-3.407-14.994-12.266-28.056-24.308-36.916l260.576-88.599zM846.749 327.991v-357.915c0-18.82-15.256-34.076-34.076-34.076h-670.394c-18.82 0-34.076 15.256-34.076 34.076v357.915c0 18.819 15.256 34.075 34.076 34.075h670.394c18.82 0.002 34.076-15.256 34.076-34.075zM253.825 257.118c0 9.516-7.715 17.231-17.231 17.231h-0.348c-9.516 0-17.231-7.715-17.231-17.231v-216.166c0-9.517 7.713-17.232 17.231-17.232h0.348c9.516 0 17.231 7.715 17.231 17.232v216.166zM414.529 257.118c0 9.516-7.713 17.231-17.229 17.231h-0.348c-9.516 0-17.231-7.715-17.231-17.231v-216.166c0-9.517 7.715-17.232 17.231-17.232h0.348c9.516 0 17.229 7.715 17.229 17.232v216.166zM575.234 257.118c0 9.516-7.713 17.231-17.231 17.231h-0.348c-9.517 0-17.232-7.715-17.232-17.231v-216.166c0-9.517 7.715-17.232 17.232-17.232h0.348c9.517 0 17.231 7.715 17.231 17.232v216.166zM735.935 257.118c0 9.516-7.713 17.231-17.231 17.231h-0.348c-9.517 0-17.231-7.715-17.231-17.231v-216.166c0-9.517 7.713-17.232 17.231-17.232h0.348c9.517 0 17.231 7.715 17.231 17.232v216.166zM533.998 719.773c0-31.217-25.306-56.522-56.522-56.522-31.215 0-56.522 25.306-56.522 56.522s25.307 56.522 56.522 56.522c31.217 0 56.522-25.306 56.522-56.522zM505.736 719.773c0 15.608-12.653 28.26-28.26 28.26s-28.262-12.653-28.262-28.26c0-15.609 12.654-28.262 28.262-28.262 15.608 0.002 28.26 12.654 28.26 28.262zM786.367 860.411c-10.56-16.232-26.887-28.312-46.067-33.424l127.468-179.175 48.029 30.327-129.431 182.272zM645.227 877.319l-128.127-88.939c16.357-9.428 29.079-24.648 35.213-42.71l129.718 88.26c-17.040 9.315-30.216 24.763-36.804 43.389zM776.466 903.478c0-31.217-25.306-56.522-56.521-56.522s-56.522 25.306-56.522 56.522 25.307 56.522 56.522 56.522 56.521-25.306 56.521-56.522zM748.204 903.478c0 15.608-12.653 28.26-28.26 28.26s-28.262-12.653-28.262-28.26c0-15.609 12.653-28.262 28.262-28.262s28.26 12.656 28.26 28.262z" />
<glyph unicode="&#xa917;" glyph-name="container-on-a-crane" d="M888.623 479.461l-371.625 126.354c-1.641-0.095-3.293-0.278-4.926-0.278-1.593 0-3.146 0.305-4.727 0.395l-371.965-126.471-9.454 27.773 336.995 114.586c-0.885 0.651-1.864 1.131-2.727 1.82-19.924 15.885-31.339 39.576-31.339 65.029 0 12.146 9.855 22.001 21.999 22.001 12.146 0 22.001-9.855 22.001-22.001 0-11.975 5.386-23.145 14.768-30.625 9.554-7.605 21.556-10.255 33.889-7.434 13.896 3.179 25.367 14.639 28.548 28.547 2.465 10.842 0.646 21.743-5.142 30.71-5.716 8.853-14.853 15.112-25.095 17.174-17.272 3.48-29.821 18.593-29.821 35.937v52.339c-52.214 21.445-66.717 116.033-68.355 128.052l-2.247 16.63h185.203l-2.25-16.63c-1.638-12.019-16.14-106.605-68.354-128.052v-46.451c19.58-5.386 36.797-17.962 47.884-35.137 12.276-19.006 16.2-41.867 11.058-64.37-4.422-19.404-15.867-36.203-31.433-47.688l336.565-114.44-9.45-27.77zM908.015 405.352v-410.683h44.002v-58.669h-880.034v58.668h44.002v410.684h-44.002v58.669h880.034v-58.669h-44.002zM277.325 390.684h-29.335c-8.102 0-14.667-6.567-14.667-14.669v-352.013c0-8.102 6.566-14.669 14.667-14.669h29.335c8.102 0 14.667 6.567 14.667 14.669v352.015c0 8.1-6.567 14.667-14.667 14.667zM526.669 390.684h-29.336c-8.102 0-14.667-6.567-14.667-14.669v-352.013c0-8.102 6.566-14.669 14.667-14.669h29.336c8.1 0 14.667 6.567 14.667 14.669v352.015c0 8.1-6.567 14.667-14.667 14.667zM790.679 390.684h-29.335c-8.1 0-14.669-6.567-14.669-14.669v-352.013c0-8.102 6.567-14.669 14.669-14.669h29.335c8.1 0 14.667 6.567 14.667 14.669v352.015c0 8.1-6.567 14.667-14.667 14.667z" />
<glyph unicode="&#xa918;" glyph-name="containers-on-oceanic-ship" d="M883.799 386.023l-48.021-69.173h-575.63l-21.151 45.288c-6.124 13.113-19.285 21.492-33.758 21.492h-6.848v151.756c0 5.538-3.157 13.322-7.012 17.298l-27.942 28.794c-4.024 4.148-12.045 7.541-17.825 7.541h-57.386c-5.56 0-13.364-3.176-17.343-7.058l-29.932-29.194c-4.123-4.021-7.496-12.024-7.496-17.781v-151.354h-21.022c-8.895 0-14.907-9.077-11.435-17.266l69.377-163.684c9.748-22.998 32.324-37.916 57.304-37.864l712.964 1.496c20.965 0.044 40.493 10.665 51.924 28.24l129.402 198.965c5.374 8.262-0.556 19.19-10.412 19.19h-76.746c-20.349-0.003-39.407-9.971-51.012-26.686zM134.152 524.104h39.566v-26.632h-39.566v26.632zM134.152 447.138h39.566v-26.634h-39.566v26.634zM60.724 524.104h39.568v-26.632h-39.568v26.632zM60.724 447.138h39.568v-26.634h-39.568v26.634zM383.229 413.109l110.585-68.472c-4.953-2.562-10.489-4.148-16.449-4.148h-183.019c-7.098 0-13.67 2.125-19.247 5.669l108.13 66.951zM622.172 559.79h-183.018c-7.099 0-13.672 2.123-19.248 5.669l108.13 66.951 110.585-68.471c-4.953-2.565-10.489-4.15-16.449-4.15zM585.888 340.487c-7.098 0-13.672 2.125-19.248 5.669l108.13 66.953 110.585-68.472c-4.951-2.562-10.488-4.148-16.449-4.148l-183.018-0.002zM509.105 359.826l-105.965 65.611 106.573 65.988c2.277-4.725 3.664-9.959 3.664-15.554v-99.37c0.002-6.054-1.635-11.671-4.272-16.675zM694.681 425.437l106.573 65.988c2.279-4.725 3.664-9.959 3.664-15.554v-99.37c0-6.050-1.635-11.669-4.273-16.675l-105.964 65.611zM552.826 362.259c-1.887 4.37-2.952 9.177-2.952 14.242v99.368c0 4.603 0.942 8.967 2.516 13.012l102.468-63.444-102.033-63.178zM383.229 437.763l-109.342 67.701c5.816 4.029 12.85 6.417 20.458 6.417h183.019c6.484 0 12.482-1.849 17.738-4.847l-111.873-69.27zM406.090 581.56c-1.886 4.37-2.95 9.179-2.95 14.241v99.368c0 4.603 0.942 8.967 2.516 13.012l102.467-63.444-102.033-63.177zM261.283 362.259c-1.884 4.37-2.952 9.177-2.952 14.242v99.368c0 4.603 0.944 8.967 2.518 13.012l102.467-63.444-102.033-63.178zM528.036 657.066l-109.342 67.699c5.816 4.029 12.85 6.418 20.458 6.418h183.018c6.485 0 12.482-1.849 17.738-4.849l-111.872-69.269zM585.888 511.883h183.018c6.485 0 12.484-1.849 17.738-4.849l-111.873-69.269-109.34 67.701c5.816 4.026 12.85 6.417 20.458 6.417zM547.949 644.736l106.573 65.988c2.277-4.727 3.664-9.959 3.664-15.556v-99.368c0-6.054-1.636-11.671-4.273-16.675l-105.964 65.611z" />
<glyph unicode="&#xa919;" glyph-name="crane" d="M870.92 315.134c-9.178 45.253-48.963 77.779-95.137 77.779h-1.603c-46.175 0-85.959-32.525-95.137-77.779l-76.894-379.134h345.662l-76.892 379.134zM774.981 241.231c-32.149 0-58.212 26.063-58.212 58.212 0 32.152 26.063 58.214 58.212 58.214 32.152 0 58.214-26.062 58.214-58.214 0-32.149-26.062-58.212-58.214-58.212zM804.559 441.033c-9.842 1.999-19.978 3.161-30.38 3.161-70.283 0-131.433-49.984-145.406-118.864l-0.788-3.878-381.345 462.734c26.107 17.47 44.025 44.859 49.279 76.024l508.64-419.176zM208.305 679.359v123.514c32 10.764 55.201 40.666 55.201 76.291 0 44.644-36.191 80.836-80.834 80.836s-80.836-36.191-80.836-80.836c0-35.621 23.194-65.521 55.184-76.288v-146.039c0-14.157 11.485-25.642 25.642-25.642 30.434 0 55.191-24.757 55.191-55.191 0-30.432-24.757-55.191-55.191-55.191-30.432 0-55.191 24.758-55.191 55.191 0 14.157-11.485 25.642-25.642 25.642s-25.642-11.485-25.642-25.642c0-58.713 47.763-106.476 106.478-106.476 58.713 0 106.476 47.763 106.476 106.476 0 49.882-34.475 91.85-80.836 103.354zM142.254 879.164c0 22.322 18.096 40.418 40.418 40.418s40.416-18.096 40.416-40.418-18.094-40.418-40.416-40.418c-22.322 0-40.418 18.097-40.418 40.418z" />
<glyph unicode="&#xa91a;" glyph-name="crane-truck" d="M49.269 178.223h-34.863c-7.923 0-14.406 6.484-14.406 14.405v43.794c0 7.924 6.484 14.408 14.406 14.408h74.913c-21.176-18.153-35.726-43.654-40.050-72.607zM1024 236.422v-43.794c0-7.924-6.484-14.408-14.406-14.408h-116.691c-8.356 57.193-57.481 101.421-116.979 101.421s-108.768-44.229-117.124-101.421h-374.996c-4.322 28.958-18.872 54.458-40.048 72.609h81.333l-71.113 411.922c-6.623-1.723-13.538-2.734-20.706-2.734-17.172 0-33.114 5.309-46.313 14.346v-57.811c26.76-6.639 46.657-30.864 46.657-59.656 0-33.889-27.569-61.458-61.458-61.458s-61.458 27.569-61.458 61.458c0 8.172 6.629 14.801 14.801 14.801 8.17 0 14.801-6.629 14.801-14.801 0-17.567 14.289-31.856 31.856-31.856s31.858 14.289 31.858 31.856-14.291 31.858-31.858 31.858c-8.172 0-14.801 6.629-14.801 14.801v107.217c-4.027 9.691-6.276 20.304-6.276 31.438 0 45.456 36.867 82.323 82.193 82.323 45.456 0 82.189-36.867 82.189-82.323 0-11.625-2.448-22.677-6.81-32.709l298.145-449.974v403.324c0 15.847 12.822 28.813 28.814 28.813h135.995c38.32 0 74.048-19.018 95.513-50.711l87.736-129.946c12.822-19.018 19.735-41.49 19.735-64.395v-195.785h35.007c7.921 0.002 14.405-6.479 14.405-14.403zM274.363 742.206c0 22.727-18.368 41.096-41.094 41.096-22.727 0-41.096-18.368-41.096-41.096 0-22.595 18.368-41.096 41.096-41.096s41.094 18.501 41.094 41.096zM383.562 250.826h159.861l-216.193 326.293 56.332-326.293zM877.919 507.693l-70.159 99.691c-2.737 3.745-7.059 6.052-11.813 6.052h-109.345c-7.923 0-14.406-6.484-14.406-14.406v-99.549c0-8.068 6.484-14.406 14.406-14.406h179.501c11.671 0 18.442 13.111 11.816 22.618zM865.531 161.079c0-49.415-40.192-89.608-89.607-89.608-49.559 0-89.608 40.192-89.608 89.608 0 49.555 40.050 89.749 89.608 89.749 49.415-0.002 89.607-40.194 89.607-89.749zM820.728 161.079c0 24.778-20.027 44.803-44.803 44.803-24.78 0-44.803-20.027-44.803-44.803 0-24.638 20.027-44.803 44.803-44.803 24.778-0.002 44.803 20.165 44.803 44.803zM256.172 161.079c0-49.415-40.050-89.608-89.607-89.608-49.413 0-89.608 40.192-89.608 89.608 0 49.555 40.194 89.749 89.608 89.749 49.557-0.002 89.607-40.194 89.607-89.749zM211.367 161.079c0 24.778-20.025 44.803-44.803 44.803-24.78 0-44.803-20.027-44.803-44.803 0-24.638 20.025-44.803 44.803-44.803s44.803 20.165 44.803 44.803z" />
<glyph unicode="&#xa91b;" glyph-name="delivered-box-verification-symbol" d="M971.448 732.941l-139.314 61.945-439.805-206.763v-132.774l-76.723 34.115v132.774l439.806 206.761-147.722 65.683c-19.781 8.794-52.147 8.794-71.926 0l-363.756-161.742c-28.978-12.885-52.627-49.376-52.554-81.090l0.567-239.666c22.802 7.337 47.064 11.388 72.274 11.388 130.424 0 236.546-106.121 236.546-236.561 0-34.066-7.384-66.396-20.406-95.687l128.442-54.906c19.135-8.179 50.44-8.18 69.577-0.003l362.926 155.096c29.472 12.594 53.646 49.12 53.722 81.172l0.899 379.169c0.074 31.714-23.574 68.205-52.552 81.088zM831.004 457.772l49.289 103.988c4.976 10.496 17.45 16.551 22.443 10.859l50.579-57.66c5.051-5.757-1.359-18.869-11.493-23.57l-21.29-9.877-0.43-149.798c-0.020-6.546-5.801-14.338-12.897-17.4l-31.873-13.759c-6.987-3.017-12.639-0.221-12.643 6.239l-0.107 147.834-20.622-9.567c-9.698-4.499-15.77 2.555-10.956 12.711zM649.268 372.801l44.797 98.849c4.518 9.971 16.069 15.581 20.785 10.059l47.74-55.923c4.769-5.582-1.051-18.035-10.436-22.389l-19.714-9.146 1.272-143.439c0.055-6.273-5.245-13.658-11.823-16.498l-29.555-12.758c-6.48-2.798-11.783-0.042-11.858 6.149l-1.732 141.632-19.123-8.871c-8.992-4.171-14.731 2.672-10.352 12.335zM977.001 291.939c-0.023-3.291-2.98-7.191-6.602-8.714l-337.57-141.816c-3.151-1.324-5.742 0.062-5.788 3.097l-0.259 16.499c-0.047 3.040 2.47 6.596 5.624 7.939l338.173 144.058c3.631 1.546 6.559 0.125 6.539-3.172l-0.115-17.892zM192.293 379.308c-106.2 0-192.293-86.093-192.293-192.293 0-106.202 86.093-192.294 192.293-192.294s192.293 86.093 192.293 192.294c0.002 106.2-86.093 192.293-192.293 192.293zM317.944 226.523l-118.336-133.125c-5.829-6.557-13.946-9.925-22.121-9.925-6.494 0-13.023 2.125-18.469 6.487l-73.959 59.166c-12.756 10.198-14.828 28.818-4.616 41.572 10.198 12.77 28.826 14.836 41.581 4.623l52.025-41.616 99.679 112.138c10.841 12.206 29.547 13.317 41.76 2.456 12.214-10.866 13.312-29.555 2.456-41.777z" />
<glyph unicode="&#xa91c;" glyph-name="delivery-box" d="M618.829 502.21l58.391 79.459c5.585 7.601 19.389 6.291 24.849-2.235l53.062-82.9c5.085-7.943-1.275-17.413-11.557-17.097l-22.163 0.683v-148.662c0-6.559-6.204-12.291-13.924-12.805l-35.867-2.391c-8.133-0.542-14.784 4.543-14.784 11.359v154.488l-24.613 0.761c-11.896 0.37-19.412 11.152-13.394 19.341zM835.464 476.605l19.217-0.592v-136.632c0-6.030 5.204-10.57 11.577-10.146l28.18 1.879c6.084 0.403 10.978 5.455 10.978 11.281v132.054l17.518-0.54c8.142-0.249 13.185 8.204 9.152 15.256l-41.909 73.326c-4.293 7.513-15.141 8.542-19.521 1.757l-45.618-70.624c-4.687-7.25 1.161-16.734 10.426-17.018zM591.807 248.116l354.804 36.188c2.836 0.289 5.125 2.811 5.125 5.63v15.327c0 2.821-2.289 4.916-5.125 4.677l-354.804-29.793c-4.447-0.373-8.070-3.557-8.070-7.113v-19.305c0-3.552 3.622-6.065 8.070-5.61zM1024 709.552v-599.86c0-36.355-26.532-67.269-62.467-72.786l-438.362-67.273c-7.404-1.136-14.935-1.136-22.339 0l-224.117 34.396v233.698l-79.86-15.721v-205.72l-134.388 20.626c-35.934 5.512-62.466 36.427-62.466 72.783v599.86c0 31.813 20.428 60.026 50.651 69.958l146.201 48.036v-179.503l79.86 15.721v190.019l212.301 69.752c14.93 4.906 31.040 4.906 45.971 0l438.364-144.028c30.223-9.932 50.651-38.146 50.651-69.958zM968.771 722.88l-401.542 131.93v-822.541l401.544 61.624-0.002 628.987z" />
<glyph unicode="&#xa91d;" glyph-name="delivery-box-and-timer" d="M1024 703.282l-0.002-505.13c0-40.095-32.504-72.602-72.602-72.602h-392.734c11.172 31.951 17.554 66.127 17.554 101.839 0 52.507-13.329 102.422-36.938 146.265 6.45 3.219 12.281 7.585 17.144 12.919l13.386 14.418c22.404 24.193 21.044 62.28-3.316 85.138l-50.268 46.383c-11.145 10.282-25.652 15.952-40.84 15.952-16.774 0-32.897-7.063-44.129-19.228l-13.443-14.463c-3.487-3.786-6.45-7.913-8.819-12.323-8.053 4.196-16.307 8.053-24.757 11.542 4.989 8.778 7.841 18.917 7.841 29.706v16.817c0 33.181-27.041 60.165-60.279 60.165h-124.018c-23.51 0-43.696-13.678-53.589-33.379v115.976c0 19.553 9.972 48.063 22.16 63.354l116.662 146.363c11.021 13.826 27.738 21.879 45.419 21.879h501.33c17.679 0 34.399-8.053 45.421-21.879l116.662-146.363c12.183-15.286 22.155-43.796 22.155-63.349zM963.716 767.875l-38.634 48.469h-207.037l-14.52 42.769h187.467l-28.523 35.786c-5.542 6.952-13.819 10.939-22.709 10.939h-501.33c-8.891 0-17.167-3.987-22.709-10.939l-28.523-35.785h182.916l-26.013-42.769h-190.994l-38.634-48.471h749.243zM536.931 454.131l-50.24 46.366c-6.726 6.214-17.324 5.808-23.539-0.919l-13.35-14.368c-6.216-6.726-5.808-17.324 1.019-23.539l50.136-46.467c6.828-6.216 17.324-5.811 23.539 1.016l13.35 14.369c6.218 6.726 5.809 17.222-0.915 23.54zM302.349 491.324v35.666h29.45c9.171 0 16.714 7.541 16.714 16.714v16.814c0 9.171-7.541 16.612-16.714 16.612h-124.016c-9.171 0-16.61-7.439-16.61-16.612v-16.814c0-9.171 7.439-16.714 16.61-16.714h26.8v-35.156c-94.77-11.21-174.358-72.249-211.653-156.22-14.778-33.012-22.93-69.699-22.93-108.219 0-8.764 0.407-17.425 1.221-25.886 13.043-134.919 126.769-240.389 265.052-240.389 147.148 0 266.376 119.226 266.376 266.275 0.002 134.919-100.168 246.3-230.3 263.929zM266.275 26.95c-110.667 0-200.445 89.774-200.445 200.445 0 23.539 4.078 46.058 11.413 66.952 0 0.102 0 0.102 0 0.102 13.044 36.787 36.481 68.578 66.849 91.916 0 0 0 0 0.102 0 33.832 26.089 76.124 41.579 122.082 41.579 110.769 0 200.547-89.777 200.547-200.548-0.002-110.669-89.781-200.445-200.548-200.445zM427.589 227.395h-161.313v162.945c86.108 0 161.313-63.689 161.313-162.945z" />
<glyph unicode="&#xa91e;" glyph-name="delivery-box-on-a-hand" d="M1000.154 68.389h-103.606c-13.17 0-23.846 10.677-23.846 23.846v330.553c0 13.17 10.677 23.845 23.846 23.845h103.606c13.17 0 23.846-10.675 23.846-23.845v-330.553c0-13.171-10.677-23.846-23.846-23.846zM820.040 377.063c-18.519 9.417-65.001 29.681-122.018 29.681-74.273 0-152.671-55.018-152.671-55.018-59.461 0-183.801 0-203.565 0-26.132 0-81.882-13.755-81.882-79.777 0-55.017 51.622-79.775 81.882-79.775 30.258 0 235.199 0 235.199 0 21.837-2.098 39.887-25.834 39.887-25.834s-228.29 0-276.867 0c-48.578 0-96.353 34.086-104.594 69.746-56.392 38.512-130.332 117.159-164.436 152.949-40.172 42.16-96-3.551-58.684-56.825 18.382-26.244 89.849-103.046 172.838-187.896 74.422-76.091 207.362-96.954 309.914-96.954 109.376 0 219.405 59.528 323.032 76.432 6.666 1.088 10.613 8.239 10.613 14.995v224.124c0 5.983-3.315 11.441-8.649 14.152zM225.061 289.638c13.849 3.382 27.106 19.56 21.141 29.596-12.942 21.775-108.728 103.006-141.511 116.154-26.81 10.754-32.897-12.566-32.897-12.566s141.727-123.154 153.267-133.184zM252.371 346.701c13.849 3.382 27.106 19.56 21.141 29.596-12.942 21.775-78.973 73.251-111.757 86.399-26.811 10.754-32.897-12.566-32.897-12.566s111.971-93.4 123.512-103.429zM702.871 774.83v-246.111c0-40.763-33.046-73.805-73.807-73.805h-277.245c-40.763 0-73.807 33.044-73.807 73.805v246.111c0 40.763 33.044 73.808 73.807 73.808h112.784v-55.555h52.366v55.555h112.096c40.761 0 73.805-33.046 73.805-73.808zM560.387 634.301l-79.066 94.253-79.355-93.908c1.667 0 1.656 0 46.314 0v-108.459h65.511v108.459c46.144-0.002 46.595-0.345 46.595-0.345z" />
<glyph unicode="&#xa91f;" glyph-name="delivery-box-package-opened" d="M973.622 295.149l-74.355 5.931v-284.188l-363.098-78.080c-16.97-3.726-34.625-3.726-51.593-0.139l-348.476 73.254c-6.208 1.379-10.762 6.76-10.899 13.105l-6.069 232.319c-0.137 7.312 5.379 13.519 12.554 14.209l296.051 25.935c5.105 0.413 9.519 3.726 11.451 8.553l71.185 172.719v-473.877l321.708 61.114v240.594l-189.513 12.019c-15.313 0.972-28.833 10.335-35.127 24.33l-98.172 218.317-98.638-222.244c-2.068-4.553-6.345-7.588-11.174-8.138l-348.889-35.179c-10.623-1.104-18.348 9.795-13.796 19.588l92.844 198.517c1.931 4.001 5.655 6.899 9.932 7.725l369.72 67.873 11.585-2.068 365.581-65.805c4.416-0.828 8.138-3.725 10.071-7.862l90.774-199.069c4.416-9.658-3.172-20.281-13.658-19.453zM598.786 776.254h-43.085v-91.542c0-9.522-7.718-17.242-17.241-17.242h-51.725c-9.522 0-17.242 7.72-17.242 17.242v91.542h-43.082c-13.272 0-21.568 14.368-14.932 25.863l86.18 149.263c6.636 11.495 23.224 11.495 29.862 0.002l86.195-149.263c6.638-11.495-1.656-25.864-14.93-25.864z" />
<glyph unicode="&#xa920;" glyph-name="delivery-cube-box" d="M288.171 311.716l-0.475 216.727c-0.023 9.874 10.064 16.55 19.141 12.668l182.67-78.087c5.048-2.158 8.326-7.113 8.339-12.603l0.475-216.728c0.023-9.872-10.064-16.55-19.143-12.666l-182.67 78.087c-5.046 2.158-8.326 7.113-8.338 12.603zM725.353 543.205c7.247 0.018 13.747-5.809 13.767-13.724l0.475-216.728c0.013-5.488-3.243-10.459-8.281-12.643l-182.299-78.952c-1.797-0.78-3.641-1.143-5.435-1.148-7.247-0.017-13.749 5.811-13.767 13.724l-0.475 216.727c-0.012 5.49 3.243 10.459 8.281 12.643l182.299 78.952c1.797 0.781 3.638 1.144 5.435 1.149v0zM510.705 686.2c1.899 0.005 3.8-0.383 5.577-1.168l192.189-84.724c10.904-4.807 10.939-20.264 0.059-25.121l-191.788-85.631c-1.774-0.791-3.671-1.19-5.57-1.195s-3.8 0.383-5.575 1.168l-192.191 84.724c-10.903 4.807-10.939 20.264-0.059 25.121l191.789 85.633c1.772 0.791 3.669 1.188 5.568 1.193v0zM554.829 60.562v103.839h-85.472v-103.839h-81.882l124.603-124.562 124.622 124.562h-81.871zM899.438 490.829h-103.839v-85.472h103.839v-81.882l124.562 124.603-124.562 124.623v-81.873zM469.171 835.438v-103.839h85.472v103.839h81.882l-124.603 124.562-124.623-124.562h81.873zM124.562 405.171h103.839v85.472h-103.839v81.882l-124.562-124.603 124.562-124.622v81.871z" />
<glyph unicode="&#xa921;" glyph-name="delivery-of-a-box" d="M904.587 479.843l-105.46 219.951c-9.967 12.46-25.053 19.807-41.055 19.807h-33.844l-30.693-26.234h64.535c8.13 0 15.608-3.674 20.595-9.969l91.422-202.503h-716.178l91.424 202.503c4.984 6.296 12.46 9.969 20.594 9.969h64.666l-30.693 26.234h-33.973c-16.003 0-31.088-7.347-41.057-19.807l-105.457-219.951c-10.888-13.772-19.938-39.611-19.938-57.188v-421.068c0-36.203 29.381-65.585 65.585-65.585h693.879c36.203 0 65.585 29.381 65.585 65.585v421.068c0.002 17.575-9.050 43.415-19.936 57.188zM714.916 237.556l40.794 70.569c4.066 6.95 14.164 6.95 18.231 0l40.794-70.569c4.066-7.083-1.052-15.872-9.183-15.872h-17.052v-131.561c0-5.903-4.722-10.493-10.493-10.493h-26.366c-5.771 0-10.493 4.59-10.493 10.493v131.562h-17.052c-8.133-0.002-13.247 8.786-9.183 15.87zM557.12 237.556l40.794 70.569c4.069 6.95 14.167 6.95 18.231 0l40.794-70.569c4.066-7.083-1.049-15.872-9.179-15.872h-17.052v-131.561c0-5.903-4.722-10.493-10.493-10.493h-26.366c-5.771 0-10.493 4.59-10.493 10.493v131.562h-17.052c-8.133-0.002-13.252 8.786-9.186 15.87zM834.672 20.078c0-2.886-2.359-5.247-5.245-5.247h-290.274c-2.89 0-5.249 2.359-5.249 5.247v15.87c0 2.886 2.359 5.247 5.249 5.247h290.274c2.886 0 5.245-2.359 5.245-5.247v-15.87zM620.849 820.928h125.81c12.189 0 17.788-15.176 8.517-23.092l-234.68-200.394c-4.906-4.19-12.131-4.19-17.035 0l-234.643 200.394c-9.268 7.916-3.671 23.092 8.518 23.092h125.805c7.245 0 13.116 5.873 13.116 13.118v112.836c0 7.245 5.873 13.118 13.118 13.118h165.244c7.245 0 13.118-5.873 13.118-13.118v-112.837c-0.002-7.243 5.871-13.116 13.113-13.116z" />
<glyph unicode="&#xa922;" glyph-name="delivery-package" d="M806.798 820.567l-497.888-234.068v-150.307l-86.856 38.621v150.307l497.888 234.066-167.23 74.355c-22.392 9.956-59.032 9.956-81.425 0l-411.794-183.099c-32.806-14.587-59.578-55.895-59.494-91.799l1.014-429.233c0.085-36.285 27.454-77.638 60.818-91.902l410.714-175.572c21.66-9.26 57.105-9.26 78.766-0.005l410.855 175.579c33.362 14.257 60.732 55.607 60.818 91.891l1.016 429.243c0.085 35.904-26.686 77.212-59.494 91.799l-157.708 70.124zM930.967 476.988l-24.099-11.182-0.489-169.584c-0.022-7.411-6.567-16.232-14.602-19.699l-36.079-15.576c-7.909-3.415-14.308-0.249-14.313 7.066l-0.122 167.355-23.343-10.829c-10.98-5.093-17.851 2.893-12.4 14.391l55.798 117.72c5.632 11.883 19.754 18.738 25.406 12.293l57.259-65.275c5.716-6.515-1.539-21.358-13.016-26.681zM695.376 204.644c0.062-7.099-5.94-15.46-13.387-18.676l-33.457-14.443c-7.337-3.167-13.339-0.049-13.422 6.961l-1.959 160.336-21.648-10.043c-10.181-4.723-16.678 3.025-11.722 13.961l50.715 111.905c5.115 11.289 18.193 17.637 23.529 11.386l54.046-63.307c5.398-6.32-1.191-20.416-11.816-25.344l-22.317-10.354 1.441-162.383zM970.794 251.2c-0.025-3.725-3.373-8.14-7.476-9.865l-382.151-160.544c-3.566-1.499-6.499 0.072-6.551 3.507l-0.293 18.676c-0.054 3.443 2.794 7.468 6.367 8.988l382.832 163.082c4.108 1.75 7.426 0.144 7.401-3.591l-0.129-20.254z" />
<glyph unicode="&#xa923;" glyph-name="delivery-package-box-with-fragile" d="M1000.642 697.207l-122.972 154.281c-11.615 14.574-29.239 23.063-47.875 23.063h-635.589c-18.636 0-36.258-8.488-47.874-23.062l-122.974-154.283c-12.849-16.116-23.358-46.169-23.358-66.779v-532.452c0-42.267 34.262-76.529 76.529-76.529h870.942c42.268 0 76.529 34.264 76.531 76.529v532.452c-0.002 20.611-10.511 50.663-23.36 66.779zM533.126 248.64c-7.809-20.462-4.742-48.377 4.223-72.297 48.955-3.013 85.445-14.515 85.445-28.28 0-16.058-49.605-29.075-110.796-29.075s-110.796 13.016-110.796 29.075c0 13.767 36.493 25.269 85.445 28.28 8.965 23.92 12.034 51.836 4.223 72.297-122.877 8.048-160.624 86.041-160.624 135.913 0 63.341 27.178 139.063 44.168 176.498l127.921 0.711-42.414-117.106 53.42-1.482-23.733-90.157 79.27 125.554h-44.176l36.145 83.193h88.414c16.97-37.194 44.484-113.487 44.484-177.211 0.005-49.87-37.742-127.864-160.619-135.913zM63.547 698.514l40.722 51.093h277.854l27.419 45.081h-269.339l30.066 37.721c5.843 7.329 14.567 11.532 23.937 11.532h635.589c9.373 0 18.096-4.203 23.94-11.532l30.064-37.721h-274.138l15.305-45.081h294.765l40.724-51.093h-896.909z" />
<glyph unicode="&#xa924;" glyph-name="delivery-package-opened" d="M510.354 585.096v-421.968l335.942 63.754v205.596c0 8.607 7.496 15.291 16.046 14.311l41.33-6.395c7.272-0.835 12.762-6.991 12.762-14.311v-238.846c0-6.79-4.74-12.656-11.378-14.083l-367.748-79.072c-17.771-3.82-36.148-3.862-53.936-0.12l-363.801 76.524c-6.529 1.372-11.261 7.051-11.435 13.722l-6.285 242.571c-0.197 7.608 5.558 14.055 13.138 14.721l309.027 27.154c5.359 0.47 10.009 3.89 12.059 8.863l46.555 113.063c6.007 14.59 27.723 10.294 27.723-5.483zM98.356 723.252l-96.975-207.286c-4.739-10.13 3.37-21.559 14.495-20.435l364.191 36.799c5.147 0.52 9.619 3.76 11.717 8.488l117.183 263.998-400.165-73.5c-4.58-0.842-8.471-3.845-10.446-8.063zM508.968 804.815l123.994-272.25c2.167-4.759 6.741-7.968 11.955-8.388l363.503-29.233c10.954-0.88 18.82 10.337 14.259 20.336l-94.8 207.832c-1.961 4.298-5.903 7.36-10.555 8.199l-408.357 73.504z" />
<glyph unicode="&#xa925;" glyph-name="delivery-packages-on-a-trolley" d="M67.13 783.389c-19.108 57.914 12.46 120.584 70.381 139.695s120.588-12.467 139.695-70.381l217.344-658.73c-20.254 5.348-41.795 6.326-63.299 2.394l-210.417 637.735c-8.855 26.838-37.886 41.464-64.723 32.609-26.838-8.855-41.464-37.886-32.609-64.723 5.135-15.566-3.32-32.351-18.887-37.486-15.566-5.135-32.35 3.321-37.486 18.887zM923.461 266.638l-356.104-117.495c12.638-14.348 22.655-31.404 29.017-50.678 0.226-0.688 0.353-1.382 0.569-2.071l345.119 113.871c15.566 5.135 24.022 21.921 18.887 37.485-5.137 15.569-21.924 24.025-37.488 18.889zM568.189 89.158c20.177-61.15-13.041-127.078-74.19-147.255-61.15-20.177-127.078 13.039-147.255 74.19s13.041 127.078 74.19 147.255c61.15 20.179 127.080-13.039 147.255-74.19zM512.827 70.893c-10.088 30.574-43.050 47.181-73.627 37.093-30.574-10.086-47.183-43.051-37.095-73.626s43.051-47.183 73.627-37.097c30.574 10.089 47.183 43.055 37.095 73.629zM833.466 713.462l120.899-366.426c2.568-7.782-1.66-16.175-9.444-18.743l-380.519-125.549c-7.782-2.568-16.175 1.66-18.742 9.444l-120.899 366.426c-2.568 7.784 1.66 16.175 9.444 18.743l380.517 125.55c7.784 2.565 16.175-1.661 18.743-9.445zM783.131 500.608l-129.569 71.287-61.681-134.39 40.838-18.795 26.669 58.139 48.156-145.957 46.088 15.206-48.15 145.935 56.014-30.832 21.634 39.407zM670.070 719.213l-77.295 234.268c-1.641 4.976-7.007 7.68-11.983 6.037l-66.277-21.867-0.325-0.596-0.556 0.305-34.968-11.538 28.796-87.272-39.442-13.014-28.794 87.272-34.98-11.542-0.264-0.576-0.619 0.284-65.847-21.727c-4.978-1.641-7.678-7.007-6.037-11.983l77.297-234.27c1.641-4.976 7.007-7.68 11.983-6.037l243.28 80.27c4.971 1.643 7.675 7.009 6.032 11.985z" />
<glyph unicode="&#xa926;" glyph-name="delivery-package-with-umbrella" d="M1000.64 697.208l-122.97 154.279c-11.617 14.574-29.241 23.063-47.877 23.063h-635.588c-18.636 0-36.258-8.488-47.874-23.062l-122.974-154.281c-12.849-16.116-23.358-46.169-23.358-66.779v-532.452c0-42.267 34.264-76.529 76.529-76.529h870.942c42.267 0 76.529 34.264 76.529 76.529v532.452c0 20.611-10.511 50.663-23.36 66.779zM723.986 346.668c-34.118 0-62.584-14.247-69.207-33.193h-2.843c-6.462 19.068-35.017 33.441-69.281 33.441-22.073 0-41.733-5.983-54.689-15.323v-160.373c0-39.913-32.47-72.383-72.383-72.383s-72.383 32.468-72.383 72.383c0 8.819 7.146 15.969 15.967 15.969 8.819 0 15.966-7.148 15.966-15.969 0-22.302 18.146-40.448 40.448-40.448 22.304 0 40.45 18.146 40.45 40.448v160.11c-12.957 9.347-32.629 15.337-54.71 15.337-34.118 0-62.588-14.247-69.209-33.193h-2.841c-6.462 19.068-35.017 33.441-69.282 33.441-22.021 0-41.684-5.94-54.645-15.241 10.416 113.711 117.407 204.096 250.689 210.827v11.937c0 8.819 7.146 15.966 15.966 15.966s15.967-7.146 15.967-15.966v-11.938c133.374-6.746 240.417-97.263 250.688-211.091-12.959 9.313-32.632 15.261-54.669 15.261zM63.547 698.515l40.722 51.093h277.854l27.419 45.081h-269.339l30.066 37.721c5.841 7.329 14.567 11.532 23.937 11.532h635.588c9.373 0 18.096-4.203 23.94-11.532l30.066-37.721h-274.138l15.305-45.081h294.763l40.724-51.093h-896.907z" />
<glyph unicode="&#xa927;" glyph-name="delivery-packaging-box" d="M510.423 409.039v-404.135l321.745 61.057v196.911c0 8.242 7.18 14.644 15.368 13.704l39.585-6.126c6.964-0.8 12.223-6.694 12.223-13.704v-228.755c0-6.5-4.539-12.119-10.896-13.488l-352.209-75.731c-17.020-3.661-34.62-3.699-51.657-0.115l-348.429 73.293c-6.254 1.315-10.785 6.755-10.951 13.141l-6.020 232.32c-0.187 7.285 5.322 13.463 12.584 14.1l295.966 26.007c5.133 0.45 9.587 3.725 11.548 8.49l44.587 108.283c5.757 13.973 26.555 9.86 26.555-5.252zM115.836 541.359l-92.878-198.527c-4.539-9.701 3.226-20.647 13.883-19.571l348.802 35.244c4.929 0.499 9.211 3.601 11.222 8.128l112.23 252.839-383.256-70.392c-4.385-0.806-8.112-3.683-10.002-7.722zM509.095 619.474l118.757-260.746c2.075-4.556 6.457-7.631 11.448-8.033l348.141-27.996c10.493-0.845 18.025 9.899 13.658 19.476l-90.795 199.051c-1.877 4.116-5.655 7.049-10.108 7.851l-391.102 70.398zM411.51 825.353l86.195-149.261c6.638-11.493 23.227-11.492 29.863 0l86.176 149.261c6.638 11.495-1.658 25.863-14.93 25.863h-43.082v91.541c0 9.524-7.718 17.244-17.242 17.244h-51.725c-9.522 0-17.242-7.72-17.242-17.242v-91.541h-43.083c-13.272 0-21.568-14.369-14.93-25.864z" />
<glyph unicode="&#xa928;" glyph-name="delivery-packing" d="M200.19 953.295h285.852l-26.634-213.017h-459.408l150.839 189.244c11.975 15.022 30.141 23.773 49.351 23.773zM823.81 953.295h-285.85l26.634-213.017h459.406l-150.839 189.244c-11.975 15.022-30.139 23.773-49.351 23.773zM1024 703.744v-682.153c0-43.569-35.318-78.886-78.885-78.886h-866.229c-43.567 0-78.886 35.318-78.886 78.886v682.153h459.408v-269.148h105.184v269.148h459.408zM828.779 238.952h20.582v-158.333c0-6.987 5.662-12.651 12.651-12.651h31.625c6.987 0 12.651 5.664 12.651 12.651v158.333h20.584c9.74 0 15.825 10.543 10.956 18.977l-49.050 84.942c-4.871 8.431-17.045 8.431-21.912-0.002l-49.042-84.942c-4.871-8.436 1.216-18.976 10.954-18.976zM639.009 238.952h20.584v-158.333c0-6.987 5.662-12.651 12.651-12.651h31.625c6.987 0 12.651 5.664 12.651 12.651v158.333h20.582c9.736 0 15.825 10.543 10.954 18.977l-49.050 84.942c-4.871 8.431-17.043 8.431-21.912-0.002l-49.042-84.942c-4.869-8.436 1.218-18.976 10.956-18.976zM961.834 31.232c0 3.494-2.833 6.325-6.326 6.325h-349.059c-3.492 0-6.323-2.833-6.323-6.325v-18.976c0-3.494 2.831-6.326 6.323-6.326h349.057c3.494 0 6.326 2.833 6.326 6.326v18.976z" />
<glyph unicode="&#xa929;" glyph-name="delivery-pack-security" d="M810.396 357.251l-20.095-10.548-20.097 10.548c-119.008 63.281-255.69 155.21-256.402 305.716v78.674h-54.587v-106.894h-100.623v106.894h-216.782c-78.244 0-141.811-63.567-141.811-141.955v-472.897c0-78.39 63.567-141.812 141.811-141.812h532.902c78.247 0 141.812 63.423 141.812 141.812v233.741c-2.138-1.141-4.133-2.14-6.129-3.279zM166.326 316.204l53.589-63.853c0 0-17.672 0-38.624 0v-82.947h-29.786v82.947h-38.768l53.589 63.853zM341.917 91.298h-213.502v26.939h213.501l0.002-26.939zM318.971 252.351v-82.947h-29.93v82.947h-38.624l53.588 63.853 53.589-63.853c0.002 0-17.672 0-38.623 0zM790.275 911.024c-57.24-44.894-135.648-70.559-233.725-70.559v-177.364c0.529-114.129 95.076-194.389 233.725-268.034 138.56 73.646 233.194 153.906 233.725 268.034v177.368c-98.076 0-176.484 25.664-233.725 70.556zM790.275 435.198v227.904h-198.445v143.144c77.262 4.762 143.763 25.312 198.445 61.386v-204.531h198.445c-0.44-82.996-60.15-151.701-198.445-227.904z" />
<glyph unicode="&#xa92a;" glyph-name="delivery-scale-with-a-box" d="M404.449 726.427c0-11.994-9.723-21.717-21.718-21.717s-21.717 9.723-21.717 21.717 9.723 21.717 21.717 21.717c11.995 0 21.718-9.725 21.718-21.717zM511.999 831.588c11.994 0 21.717 9.723 21.717 21.717s-9.723 21.717-21.717 21.717c-11.994 0-21.718-9.723-21.718-21.717s9.725-21.717 21.718-21.717zM499.584 700.665l144.249 25.122-144.249 25.12c-2.789 0.474-5.804 0.514-8.749 0-13.873-2.416-23.162-15.619-20.744-29.494 2.414-13.874 15.621-23.162 29.494-20.748zM533.716 597.159c0 11.994-9.723 21.717-21.717 21.717s-21.718-9.723-21.718-21.717 9.723-21.717 21.718-21.717c11.994 0 21.717 9.725 21.717 21.717zM466.784 495.997c-107.575 21.133-188.994 116.119-188.994 229.796 0 132.861 111.2 240.235 245.419 233.944 120.772-5.662 219.444-106.265 222.903-227.123 3.333-116.681-79.173-215.067-188.897-236.62l-90.432 0.002zM791.249 44.313c8.883 0 16.081-7.201 16.081-16.083v-32.375c0-8.885-7.2-16.083-16.081-16.083h-45.043v-27.69c0-8.885-7.2-16.083-16.081-16.083h-48.252c-8.883 0-16.081 7.201-16.081 16.083v27.69h-311.66v-27.69c0-8.885-7.201-16.083-16.083-16.083h-48.25c-8.883 0-16.083 7.201-16.083 16.083v27.69h-40.962c-8.883 0-16.083 7.201-16.083 16.083v32.375c0 8.883 7.201 16.083 16.083 16.083h558.494zM512.001 551.863c95.898 0 173.918 78.020 173.918 173.93 0 95.898-78.020 173.92-173.918 173.92-95.9 0-173.92-78.022-173.92-173.92 0-95.91 78.020-173.93 173.92-173.93zM723.69 390.558v-245.255c0-40.62-32.932-73.549-73.549-73.549h-276.283c-40.62 0-73.551 32.929-73.551 73.549v245.255c0 40.62 32.93 73.549 73.551 73.549h112.391v-55.361h52.182v55.361h111.707c40.62 0 73.552-32.929 73.552-73.549zM591.078 250.517l-78.793 93.925-79.079-93.582c1.661 0 1.651 0 46.152 0v-108.082h65.285v108.082c45.985 0 46.435-0.343 46.435-0.343z" />
<glyph unicode="&#xa92b;" glyph-name="delivery-time-symbol" d="M392.716 142.241l39.156 87.15 39.143-87.15h-78.299zM130.292 404.664l87.15 39.156-87.15 39.143v-78.299zM431.872 658.236l39.143 87.149h-78.298l39.155-87.149zM603.902 615.707l-69.52-154.885c5.314-32.033-4.265-66.081-28.928-90.741-24.66-24.661-58.706-34.24-90.741-28.928l-154.885-69.518 69.518 154.883c-5.312 32.033 4.265 66.081 28.928 90.743 24.66 24.661 58.708 34.24 90.741 28.926l154.887 69.52zM456.584 468.39c-13.628 13.628-35.807 13.628-49.435 0-13.628-13.63-13.628-35.807 0-49.435 13.63-13.63 35.807-13.63 49.435 0 13.628 13.627 13.628 35.807 0 49.435zM733.438 404.664v78.298l-87.15-39.143 87.15-39.155zM1000.928-45.806c3.007-10.568-6.552-20.43-17.209-17.749l-225.34 56.638c-10.657 2.679-14.416 15.889-6.77 23.78l26.232 27.061c5.486 5.66 5.346 14.696-0.315 20.182l-75.058 72.766c-72.202-63.759-166.932-102.571-270.604-102.571-225.73 0-409.371 183.644-409.371 409.371 0 192.557 144.712 407.535 409.371 407.535 111.745 0 201.305-37.316 267.885-94.683l77.774 75.391c5.66 5.488 5.801 14.523 0.315 20.182l-26.227 27.056c-7.648 7.891-3.887 21.102 6.77 23.778l225.357 56.625c10.655 2.679 20.214-7.185 17.206-17.753l-63.615-223.471c-3.008-10.568-16.329-13.918-23.977-6.029l-26.226 27.054c-5.486 5.66-14.525 5.801-20.184 0.313l-84.667-82.072c39.068-66.083 58.962-141.585 58.962-213.927 0-75.686-20.726-146.589-56.683-207.477l82.377-79.86c5.66-5.486 14.697-5.348 20.184 0.315l26.236 27.064c7.647 7.891 20.969 4.541 23.975-6.029l63.603-223.488zM761.327 443.67c0 181.661-147.794 329.464-329.462 329.464-181.666 0-329.462-147.802-329.462-329.464 0-181.66 147.796-329.46 329.462-329.46s329.462 147.801 329.462 329.46z" />
<glyph unicode="&#xa92c;" glyph-name="delivery-time-tool" d="M910.19 690.988l-30.615-31.073c73.885-87.135 114.589-203.234 102.131-328.692-20.605-207.48-188.721-374.239-396.348-393.316-245.439-22.553-454.726 157.902-479.004 392.45h-43.254c-26.298 0-42.734 28.47-29.584 51.244l96.743 167.521c13.15 22.771 46.018 22.769 59.166-0.002l96.721-167.524c13.15-22.772-3.286-51.24-29.584-51.24h-37.655c24.466-175.114 187.494-306.45 374.416-279.053 138.32 20.273 250.515 129.4 274.025 267.205 35.189 206.257-123.529 385.77-323.382 385.77-64.81 0-127.363-18.802-181.097-54.413-24.937-16.525-59.506-13.255-77.801 10.414-19.921 25.769-13.7 62.559 12.862 80.496 57.65 38.945 123.005 63.284 191.478 71.757v63.501h-44.815c-15.42 0-27.919 12.499-27.919 27.919v28.13c0 15.419 12.502 27.919 27.919 27.919h207.828c15.42 0 27.919-12.5 27.919-27.919v-28.13c0-15.419-12.499-27.919-27.919-27.919h-49.361v-64.164c87.9-11.86 167.59-49.828 231.14-105.723l28.403 28.828-20.813 19.24c-11.323 10.464-12.019 28.13-1.551 39.452l22.27 24.094c10.466 11.324 28.13 12.019 39.452 1.553l84.182-77.812c11.326-10.466 12.019-28.13 1.554-39.452l-22.27-24.092c-10.466-11.323-28.13-12.019-39.452-1.553l-15.785 14.585zM605.037 434.213c-38.624 39.437-105.055 35.152-137.621-13.503-19.55-29.206-19.25-68.68 0.499-97.748 24-35.323 66.255-46.846 102.298-34.622l112.217-91.405c21.454-17.473 49.888 10.705 32.609 32.315l-90.097 112.682c11.251 31.036 4.74 67.117-19.904 92.282z" />
<glyph unicode="&#xa92d;" glyph-name="delivery-transportation-machine" d="M314.033 814.125h-156.744c-26.729 0-48.397-21.668-48.397-48.396v-254.083h-48.397c-33.409 0-60.495-27.086-60.495-60.496v-213.308c20.811 34.967 58.922 58.318 102.48 58.318 63.036 0 114.822-49.122 119.055-111.191h228.188c4.237 62.069 55.898 111.191 119.055 111.191 22.262 0 43.194-6.171 60.978-16.819l-250.977 495.015c-12.367 24.395-37.396 39.769-64.746 39.769zM470.414 414.37h-273.682c-6.775 0-12.097 5.445-12.097 12.097v300.785c0 6.654 5.324 12.097 12.097 12.097h119.176c4.598 0 8.712-2.542 10.769-6.532l154.507-300.785c4.113-8.105-1.695-17.662-10.769-17.662zM102.475 271.984c-52.497 0-95.056-42.558-95.056-95.055 0-52.498 42.56-95.056 95.056-95.056s95.056 42.558 95.056 95.056c0 52.498-42.558 95.055-95.056 95.055zM102.475 129.4c-26.249 0-47.527 21.28-47.527 47.527s21.28 47.527 47.527 47.527 47.527-21.278 47.527-47.526-21.278-47.529-47.527-47.529zM919.534 233.367v-48.397h-231.939c-2.711 40.307-25.476 75.12-58.44 94.598v486.162h48.396v-532.361l241.984-0.002zM568.745 271.984c-52.497 0-95.056-42.558-95.056-95.055 0-52.498 42.56-95.056 95.056-95.056s95.056 42.558 95.056 95.056c0.002 52.498-42.558 95.055-95.056 95.055zM568.745 129.4c-26.249 0-47.527 21.28-47.527 47.527s21.28 47.527 47.527 47.527 47.527-21.28 47.527-47.527-21.278-47.527-47.527-47.527zM978.362 632.952h-81.413v-83.525h-68.677v83.525h-81.84c-25.205 0-45.637-20.435-45.637-45.638v-285.273c0-25.205 20.433-45.638 45.637-45.638h231.929c25.205 0 45.638 20.433 45.638 45.638v285.271c0 25.205-20.435 45.64-45.638 45.64z" />
<glyph unicode="&#xa92e;" glyph-name="delivery-truck" d="M57.781 306.454c-17.090-14.647-28.831-35.226-32.32-58.596h-13.834c-6.395 0-11.627 5.232-11.627 11.627v35.343c0 6.395 5.23 11.624 11.627 11.624l46.154 0.002zM191.011 247.86c0.93-4.533 1.395-9.065 1.395-13.834 0-39.876-32.32-72.311-72.312-72.311-39.876 0-72.312 32.435-72.312 72.311 0 4.769 0.463 9.301 1.394 13.834 6.393 33.369 35.691 58.596 70.917 58.596s64.641-25.227 70.919-58.596zM156.25 234.026c0 4.882-0.929 9.651-2.789 13.834-5.348 13.138-18.253 22.324-33.365 22.324-15.114 0-28.018-9.186-33.367-22.324-1.861-4.183-2.789-8.952-2.789-13.834 0-19.879 16.16-36.156 36.156-36.156s36.155 16.277 36.155 36.156zM28.622 352.84v346.567c0 19.262 15.616 34.878 34.878 34.878h555.712c19.264 0 34.878-15.616 34.878-34.878v-346.567c0-6.392-5.23-11.624-11.625-11.624h-602.216c-6.395 0-11.627 5.232-11.627 11.624zM569.685 391.968c0-5.52 4.474-9.994 9.994-9.994h0.311c5.518 0 9.992 4.474 9.992 9.994v287.562c0 5.518-4.474 9.992-9.992 9.992h-0.311c-5.52 0-9.994-4.474-9.994-9.992v-287.562zM475.715 391.968c0-5.52 4.472-9.994 9.991-9.994h0.311c5.52 0 9.992 4.474 9.992 9.994v287.562c0 5.518-4.472 9.992-9.992 9.992h-0.311c-5.518 0-9.991-4.474-9.991-9.992v-287.562zM381.743 391.968c0-5.52 4.474-9.994 9.992-9.994h0.311c5.518 0 9.992 4.474 9.992 9.994v287.562c0 5.518-4.474 9.992-9.992 9.992h-0.311c-5.518 0-9.992-4.474-9.992-9.992v-287.562zM287.774 391.968c0-5.52 4.474-9.994 9.992-9.994h0.311c5.518 0 9.992 4.474 9.992 9.994v287.562c0 5.518-4.474 9.992-9.992 9.992h-0.311c-5.518 0-9.992-4.474-9.992-9.992v-287.562zM193.804 391.968c0-5.52 4.472-9.994 9.992-9.994h0.311c5.518 0 9.991 4.474 9.991 9.994v287.562c0 5.518-4.472 9.992-9.991 9.992h-0.311c-5.52 0-9.992-4.474-9.992-9.992v-287.562zM99.833 391.968c0-5.52 4.474-9.994 9.992-9.994h0.311c5.52 0 9.992 4.474 9.992 9.994v287.562c0 5.518-4.472 9.992-9.992 9.992h-0.311c-5.518 0-9.992-4.474-9.992-9.992v-287.562zM369.468 247.86c0.93-4.533 1.395-9.065 1.395-13.834 0-39.876-32.32-72.311-72.312-72.311-39.877 0-72.312 32.435-72.312 72.311 0 4.769 0.465 9.301 1.394 13.834 6.395 33.369 35.693 58.596 70.919 58.596s64.639-25.227 70.917-58.596zM334.707 234.026c0 4.882-0.93 9.651-2.674 13.834-5.465 13.138-18.37 22.324-33.482 22.324s-28.019-9.186-33.482-22.324c-1.743-4.183-2.674-8.952-2.674-13.834 0-19.879 16.16-36.156 36.158-36.156 19.995 0 36.155 16.277 36.155 36.156zM236.236 306.454h-53.825c11.858-10.228 21.275-23.366 26.972-38.248 5.578 14.88 14.995 28.019 26.853 38.248zM1024 294.83v-35.343c0-6.395-5.232-11.627-11.625-11.627h-94.168c-6.743 46.157-46.388 81.846-94.402 81.846s-87.775-35.689-94.518-81.846h-336.103c-3.487 23.37-15.229 43.948-32.32 58.596h326.454v332.497c0 12.79 10.345 23.252 23.251 23.252h109.749c30.924 0 59.757-15.347 77.076-40.923l70.802-104.865c10.347-15.347 15.927-33.482 15.927-51.966v-157.996h28.25c6.395-0.002 11.627-5.23 11.627-11.625zM906.115 513.743l-56.618 80.451c-2.209 3.022-5.696 4.882-9.532 4.882h-88.238c-6.393 0-11.627-5.23-11.627-11.627v-80.334c0-6.51 5.234-11.625 11.627-11.625h144.856c9.418 0 14.88 10.58 9.532 18.253zM896.115 234.026c0-39.876-32.435-72.311-72.312-72.311-39.993 0-72.312 32.435-72.312 72.311 0 39.993 32.32 72.428 72.312 72.428 39.879 0 72.312-32.433 72.312-72.428zM859.961 234.026c0 19.996-16.16 36.156-36.156 36.156s-36.156-16.16-36.156-36.156c0-19.879 16.16-36.156 36.156-36.156s36.156 16.277 36.156 36.156z" />
<glyph unicode="&#xa92f;" glyph-name="delivery-truck-1" d="M1024 411.926v36.151c0 17.624-7.049 34.515-19.578 46.912l-194.413 192.35c-12.355 12.224-29.033 19.080-46.413 19.080h-98.086v36.79c0 27.333-22.158 49.493-49.493 49.493h-566.523c-27.335 0-49.493-22.158-49.493-49.493v-331.282h1024zM723.745 641.585c0 4.288 3.465 7.754 7.755 7.754h35.8c1.981 0 3.959-0.827 5.443-2.145l152.271-145.343c5.115-4.785 1.65-13.364-5.277-13.364h-188.235c-4.288 0-7.755 3.464-7.755 7.754v145.344zM1024 384.581v-109.571c0-27.333-22.158-49.49-49.492-49.49h-52.957c-9.569 65.66-66.157 116.14-134.454 116.14-68.134 0-124.721-50.481-134.29-116.14h-268.415c-9.567 65.66-66.155 116.14-134.29 116.14s-124.722-50.481-134.29-116.14h-66.321c-27.335-0.002-49.493 22.155-49.493 49.488v109.571h1024zM787.168 308.6c-56.693 0-102.653-45.958-102.653-102.651s45.961-102.651 102.653-102.651 102.651 45.958 102.651 102.651-45.958 102.651-102.651 102.651zM787.168 154.622c-28.346 0-51.325 22.98-51.325 51.327s22.976 51.324 51.325 51.324c28.346 0 51.327-22.976 51.327-51.324s-22.981-51.327-51.327-51.327zM250.084 308.6c-56.693 0-102.651-45.958-102.651-102.651s45.96-102.651 102.651-102.651 102.651 45.958 102.651 102.651-45.96 102.651-102.651 102.651zM250.084 154.622c-28.346 0-51.327 22.98-51.327 51.327s22.98 51.324 51.327 51.324c28.346 0 51.325-22.976 51.325-51.324s-22.98-51.327-51.325-51.327z" />
<glyph unicode="&#xa930;" glyph-name="delivery-truck-2" d="M35.93 328.329v435.675c0 24.21 19.625 43.836 43.836 43.836h435.451c24.21 0 43.835-19.627 43.835-43.836v-435.677c0-8.070-6.541-14.612-14.612-14.612h-493.898c-8.072 0-14.612 6.542-14.612 14.614zM387.571 179.076c0-50.213-40.707-90.918-90.918-90.918s-90.918 40.706-90.918 90.918c0 50.214 40.707 90.918 90.918 90.918s90.918-40.704 90.918-90.918zM342.11 179.076c0 25.106-20.353 45.459-45.459 45.459s-45.461-20.353-45.461-45.459 20.355-45.461 45.461-45.461 45.459 20.355 45.459 45.461zM218.345 269.996h-203.732c-8.070 0-14.612-6.542-14.612-14.612v-44.332c0-8.070 6.542-14.612 14.612-14.612h163.301c4.263 29.254 19.029 55.095 40.431 73.556zM863.269 179.076c0-50.213-40.707-90.918-90.918-90.918-50.213 0-90.918 40.706-90.918 90.918 0 50.214 40.706 90.918 90.918 90.918 50.211 0.002 90.918-40.704 90.918-90.918zM817.811 179.076c0 25.106-20.355 45.459-45.461 45.459-25.108 0-45.459-20.353-45.459-45.459s20.353-45.461 45.459-45.461 45.461 20.355 45.461 45.461zM1024 255.384v-44.332c0-8.070-6.542-14.612-14.612-14.612h-118.302c-8.461 58.032-58.405 102.78-118.732 102.78-60.339 0-110.284-44.75-118.746-102.78h-238.217c-4.265 29.253-19.029 55.095-40.431 73.556h225.872v417.951c0 16.14 13.084 29.224 29.224 29.224h137.947c38.842 0 75.145-19.294 96.878-51.484l88.931-131.716c13.044-19.32 20.015-42.099 20.015-65.412v-198.562h35.561c8.070 0 14.612-6.542 14.612-14.612zM875.768 530.598l-71.113 101.050c-2.737 3.889-7.195 6.203-11.95 6.203h-110.925c-8.068 0-14.612-6.542-14.612-14.612v-101.050c0-8.072 6.542-14.612 14.612-14.612h182.041c11.836 0 18.76 13.34 11.947 23.022z" />
<glyph unicode="&#xa931;" glyph-name="delivery-truck-with-circular-clock" d="M1010.834 223.506h-31.992v178.921c0 20.935-6.318 41.474-18.037 58.852l-80.18 118.756c-19.618 28.965-52.268 46.344-87.289 46.344h-124.285c-14.614 0-26.331-11.85-26.331-26.333v-376.543h-203.545c19.354-16.719 32.651-40.023 36.469-66.356h214.603c7.635 52.268 52.664 92.689 107.038 92.689 54.376 0 99.271-40.421 106.909-92.689h106.642c7.242 0 13.166 5.925 13.166 13.166v40.025c-0.002 7.24-5.925 13.168-13.168 13.168zM879.703 437.581h-164.047c-7.24 0-13.165 5.794-13.165 13.166v90.975c0 7.242 5.925 13.166 13.165 13.166h99.93c4.345 0 8.294-2.107 10.796-5.53l64.117-91.108c6.055-8.691-0.132-20.671-10.796-20.671zM797.284 223.506c-45.29 0-81.892-36.732-81.892-82.022 0-45.16 36.601-81.892 81.892-81.892 45.158 0 81.892 36.732 81.892 81.892 0 45.287-36.733 82.022-81.892 82.022zM797.284 100.534c-22.647 0-40.947 18.432-40.947 40.945 0 22.647 18.3 40.948 40.947 40.948 22.643 0 40.947-18.301 40.947-40.948 0-22.513-18.301-40.945-40.947-40.945zM114.504 223.506c-7.242 0-13.166-5.928-13.166-13.166v-40.026c0-7.242 5.925-13.166 13.166-13.166h147.193c3.818 26.333 17.115 49.637 36.339 66.356l-183.532 0.003zM368.603 223.506c-45.158 0-81.892-36.732-81.892-82.022 0-45.16 36.733-81.892 81.892-81.892 45.29 0 81.892 36.732 81.892 81.892 0.002 45.287-36.6 82.022-81.892 82.022zM368.603 100.534c-22.645 0-40.945 18.432-40.945 40.945 0 22.647 18.3 40.948 40.945 40.948s40.947-18.301 40.947-40.948c0-22.513-18.301-40.945-40.947-40.945zM565.566 708.007h-152.593c7.504-22.25 11.455-46.080 11.455-70.701 0-124.285-101.113-225.399-225.399-225.399-22.647 0-44.633 3.422-65.303 9.611v-145.483c0-7.242 5.925-13.166 13.166-13.166h445.005c7.243 0 13.166 5.925 13.166 13.166v392.475c-0.002 21.855-17.644 39.498-39.498 39.498zM199.059 836.407c-109.938 0-199.059-89.12-199.059-199.058s89.121-199.059 199.059-199.059 199.061 89.121 199.061 199.059-89.123 199.058-199.061 199.058zM199.059 483.589c-84.918 0-153.761 68.841-153.761 153.761s68.842 153.761 153.761 153.761c84.92 0 153.761-68.842 153.761-153.761s-68.841-153.761-153.761-153.761zM257.784 604.876c-1.697 0-3.433 0.219-5.157 0.681l-64.156 17.293c-8.614 2.327-14.605 10.143-14.605 19.068v98.744c0 10.903 8.846 19.749 19.749 19.749s19.749-8.846 19.749-19.749v-83.612l49.55-13.357c10.531-2.841 16.765-13.682 13.924-24.21-2.378-8.808-10.349-14.607-19.054-14.607z" />
<glyph unicode="&#xa932;" glyph-name="delivery-truck-with-packages-behind" d="M303.348 313.702c-49.811 0-90.211-40.399-90.211-90.063 0-49.81 40.399-90.209 90.211-90.209 49.666 0 90.063 40.401 90.063 90.209 0 49.664-40.398 90.063-90.063 90.063zM303.348 178.462c-24.906 0-45.176 20.271-45.176 45.176 0 24.76 20.271 45.033 45.176 45.033 24.758 0 45.031-20.271 45.031-45.033 0-24.906-20.271-45.176-45.031-45.176zM225.695 313.664h-201.889c-7.996 0-14.478-6.482-14.478-14.478v-43.932c0-7.996 6.482-14.478 14.478-14.478h161.822c4.227 28.988 18.857 54.597 40.067 72.888zM774.661 313.702c-49.667 0-90.063-40.399-90.063-90.063 0-49.81 40.398-90.209 90.063-90.209 49.81 0 90.062 40.401 90.062 90.209 0.002 49.664-40.252 90.063-90.062 90.063zM774.661 178.462c-24.906 0-45.033 20.271-45.033 45.176 0 24.76 20.127 45.033 45.033 45.033 24.904 0 45.031-20.271 45.031-45.033 0.002-24.906-20.127-45.176-45.031-45.176zM1009.522 313.702h-35.186v196.779c0 23.022-6.95 45.61-19.837 64.724l-88.179 130.605c-21.432 31.856-57.485 50.969-96 50.969h-136.687c-15.929 0-28.96-12.887-28.96-28.96v-414.118h-223.712c21.141-18.388 35.765-43.875 39.964-72.977h236.163c8.254 57.483 57.774 101.937 117.576 101.937 59.799 0 109.32-44.452 117.718-101.937h117.141c8.11 0 14.478 6.517 14.478 14.48v44.017c0 7.964-6.372 14.48-14.478 14.48zM865.302 549.142h-180.415c-7.964 0-14.48 6.372-14.48 14.48v100.052c0 7.964 6.519 14.48 14.48 14.48h109.901c4.777 0 9.268-2.316 11.875-6.080l70.517-100.198c6.802-9.557-0.149-22.734-11.878-22.734zM535.746 342.662h-506.788c-15.992 0-28.958 12.964-28.958 28.958v130.317c0 15.994 12.966 28.96 28.958 28.96h506.788c15.994 0 28.96-12.966 28.96-28.96v-130.317c0-15.994-12.966-28.958-28.96-28.958zM231.675 574.335h-202.717c-15.992 0-28.958 12.967-28.958 28.96v130.316c0 15.994 12.966 28.96 28.958 28.96h202.715c15.994 0 28.96-12.966 28.96-28.96v-130.316c0.002-15.992-12.964-28.96-28.958-28.96zM535.746 574.335h-202.714c-15.994 0-28.96 12.966-28.96 28.958v130.317c0 15.994 12.966 28.958 28.96 28.958h202.715c15.994 0 28.96-12.966 28.96-28.958v-130.317c-0.002-15.991-12.967-28.958-28.961-28.958z" />
<glyph unicode="&#xa933;" glyph-name="delivery-worker" d="M563.675 752.409h-78.249v-38.781h-36.554v38.781h-78.729c-28.454 0-51.521-23.067-51.521-51.523v-120.872l89.431-83.643c5.846-5.473 10.386-11.907 13.966-18.808h141.658c28.454 0 51.523 23.067 51.523 51.521v171.804c-0.002 28.454-23.067 51.521-51.525 51.521zM489.674 603.029v-75.712h-45.732v75.712c-31.173 0-31.165 0-32.33 0l55.395 65.553 55.192-65.794c0.005 0-0.313 0.241-32.525 0.241zM19.672 854.004c0 58.54 47.457 105.996 105.996 105.996s105.996-47.455 105.996-105.996-47.455-105.996-105.996-105.996c-58.54 0.002-105.996 47.457-105.996 105.996zM386.055 422.214c-6.805-7.28-16.028-10.961-25.265-10.961-8.461 0-16.946 3.092-23.619 9.323l-142.326 133.12v-204.050c0-21.782-10.27-40.973-26.008-53.653l77.188-317.231c4.518-18.559-6.874-37.271-25.434-41.782-2.744-0.676-5.498-0.979-8.199-0.979-15.588 0-29.733 10.59-33.583 26.412l-44.323 182.157-24.961-174.44c-2.719-18.897-20.257-32.054-39.14-29.335-18.914 2.702-32.045 20.216-29.345 39.131l44.835 313.279c-17.728 12.526-29.383 33.083-29.383 56.439v268.576c0 38.203 30.974 69.175 69.175 69.175 8.841 0 17.224-1.814 24.998-4.837 6.087-1.221 11.942-3.991 16.809-8.538l216.947-202.913c13.953-13.056 14.687-34.943 1.633-48.893zM898.336 748.010c-58.539 0-105.997 47.455-105.997 105.996s47.457 105.994 105.997 105.994 105.994-47.455 105.994-105.996-47.455-105.994-105.994-105.994zM639.577 471.107l216.947 202.913c4.866 4.548 10.722 7.317 16.811 8.538 7.772 3.025 16.153 4.837 24.996 4.837 38.203 0 69.177-30.973 69.177-69.175v-268.574c0-23.356-11.657-43.913-29.383-56.439l44.833-313.279c2.702-18.916-10.427-36.427-29.343-39.131-18.882-2.719-36.419 10.437-39.138 29.335l-24.961 174.44-44.326-182.157c-3.848-15.825-17.992-26.415-33.581-26.415-2.702 0-5.455 0.305-8.199 0.979-18.559 4.509-29.95 23.222-25.431 41.783l77.187 317.229c-15.738 12.68-26.010 31.873-26.010 53.655v204.050l-142.324-133.12c-6.673-6.234-15.161-9.323-23.621-9.323-9.236 0-18.457 3.681-25.265 10.961-13.051 13.949-12.316 35.837 1.631 48.893z" />
<glyph unicode="&#xa934;" glyph-name="fragile-broken-glass" d="M511.284 772.176c-149.477 0-253.646 49.492-253.646 93.912s104.169 93.912 253.646 93.912c149.476 0 253.646-49.492 253.646-93.912 0-44.422-104.17-93.912-253.646-93.912zM880.469 474.395c0 129.19-55.785 283.862-90.182 359.265-22.836-41.89-89.359-74.342-179.128-88.246l-39.012-117.26h89.565l-160.709-254.538 48.115 182.777-108.3 3.005 36.901 179.357c-121.511 5.749-215.505 42.528-244.642 93.46-34.446-75.891-89.543-229.406-89.543-357.823 0-101.108 76.526-259.231 325.639-275.543 15.834-41.48 9.614-98.076-8.562-146.571-99.244-6.107-173.228-29.43-173.228-57.336 0-32.554 100.566-58.944 224.619-58.944s224.619 26.39 224.619 58.945c0 27.906-73.981 51.225-173.225 57.334-18.176 48.493-24.395 105.091-8.562 146.571 249.113 16.314 325.637 174.436 325.637 275.545z" />
<glyph unicode="&#xa935;" glyph-name="free-delivery-truck" d="M1024 394.14v-93.072c0-23.219-18.822-42.039-42.041-42.039h-44.984c-8.127 55.771-56.195 98.654-114.211 98.654-57.876 0-105.942-42.883-114.071-98.654h-382.148c-8.127 55.771-56.195 98.654-114.071 98.654s-105.944-42.883-114.071-98.654h-56.335c-23.217 0-42.039 18.82-42.039 42.039v93.072h1023.97zM289.576 618.737h-23.949l-8.799-45.436h23.333c15.547 0 28.438 10.647 28.438 28.451 0 10.839-7.156 16.985-19.023 16.985zM910.042 242.352c0-48.069-39.098-87.164-87.165-87.164-48.207 0-87.304 39.098-87.304 87.164 0 48.207 39.098 87.304 87.304 87.304 48.066 0 87.165-39.099 87.165-87.304zM866.46 242.352c0 24.101-19.62 43.582-43.582 43.582-24.102 0-43.584-19.481-43.584-43.582 0-23.964 19.481-43.585 43.584-43.585 23.962 0 43.582 19.622 43.582 43.585zM299.609 242.352c0-48.069-38.957-87.164-87.164-87.164s-87.164 39.098-87.164 87.164c0 48.207 38.959 87.304 87.164 87.304s87.164-39.099 87.164-87.304zM256.028 242.352c0 24.101-19.479 43.582-43.58 43.582-24.104 0-43.582-19.481-43.582-43.582 0-23.964 19.479-43.585 43.582-43.585 24.101 0 43.58 19.622 43.58 43.585zM1023.97 417.377h-1023.97v281.394c0 23.263 18.919 42.039 42.039 42.039h635.375c23.263 0 42.041-18.778 42.041-42.039v-31.252h83.381c14.714 0 28.868-5.886 39.377-16.255l165.22-163.398c10.509-10.511 16.536-24.804 16.536-39.799v-30.69zM149.223 577.598l7.774 41.137h57.299l4.297 22.717h-83.287l-28.245-145.296h26.194l11.468 58.736h48.294l4.297 22.704h-48.090zM302.468 557.345v0.412c21.896 7.158 33.146 28.642 33.146 48.499 0 14.93-7.362 26.194-19.652 31.518-5.925 2.654-13.098 3.681-20.87 3.681h-51.361l-28.234-145.294h26.385l10.442 54.234h26.194l18.42-54.234h28.234l-19.433 53.824c-1.849 5.307-3.273 7.36-3.273 7.36zM463.666 641.454h-86.762l-28.438-145.296h90.239l4.297 22.717h-63.841l7.568 39.084h48.909l4.503 22.717h-48.909l7.362 38.059h60.572l4.501 22.719zM580.892 641.454h-86.764l-28.438-145.296h90.241l4.295 22.717h-63.841l7.568 39.084h48.909l4.503 22.717h-48.911l7.364 38.059h60.57l4.504 22.719zM939.89 493.754l-129.347 123.461c-1.262 1.119-2.943 1.82-4.625 1.82h-30.409c-3.644 0-6.587-2.943-6.587-6.587v-123.461c0-3.644 2.943-6.586 6.587-6.586h159.895c5.886 0.002 8.829 7.288 4.486 11.353z" />
<glyph unicode="&#xa936;" glyph-name="frontal-truck" d="M905.741 123.032v157.903c0 33.928-27.504 61.433-61.432 61.433h-16.059v576.474c0 5.157-2.588 9.969-6.889 12.812l-38.994 25.774c-10.212 6.748-23.825-0.572-23.825-12.812v-185.143l-11.62 31.346c-15.628 42.158-55.84 70.137-100.802 70.137h-268.475c-45.227 0-85.616-28.304-101.051-70.815l-11.135-30.668v185.143c0 12.238-13.615 19.56-23.826 12.812l-38.996-25.772c-4.302-2.843-6.89-7.655-6.89-12.812v-576.475h-16.058c-33.928 0-61.432-27.504-61.432-61.433v-157.903h-26.172c-8.481 0-15.357-6.875-15.357-15.358v-84.903c0-8.481 6.875-15.358 15.357-15.358h66.255v-40.696c0-16.965 13.752-30.715 30.717-30.715h81.393c16.965 0 30.717 13.752 30.717 30.715v40.696h421.67v-40.696c0-16.965 13.754-30.715 30.715-30.715h81.395c16.965 0 30.715 13.752 30.715 30.715v40.696h66.255c8.483 0 15.358 6.877 15.358 15.358v84.902c0 8.483-6.875 15.358-15.358 15.358l-26.176 0.002zM285.806 673.924h452.387v-151.324h-452.387v151.324zM275.287 166.010h-52.467c-16.031 0-29.027 12.997-29.027 29.028v0.733c0 16.031 12.996 29.027 29.027 29.027h52.465c16.031 0 29.027-12.996 29.027-29.027v-0.733c0.002-16.031-12.994-29.028-29.025-29.028zM616.404 157.452h-208.809c-16.965 0-30.717 13.754-30.717 30.715v194.619c0 16.963 13.752 30.715 30.717 30.715h208.809c16.963 0 30.715-13.754 30.715-30.715v-194.617c0.002-16.963-13.752-30.717-30.715-30.717zM801.178 166.010h-52.465c-16.029 0-29.027 12.997-29.027 29.028v0.733c0 16.031 12.997 29.027 29.027 29.027h52.465c16.031 0 29.028-12.996 29.028-29.027v-0.733c0-16.031-12.997-29.028-29.028-29.028zM611.735 301.091h-199.961c-8.398 0-15.204 6.807-15.204 15.206v0.308c0 8.398 6.807 15.203 15.204 15.203h199.961c8.398 0 15.204-6.805 15.204-15.203v-0.308c0-8.399-6.807-15.206-15.204-15.206zM611.735 362.524h-199.961c-8.398 0-15.204 6.807-15.204 15.204v0.308c0 8.396 6.807 15.203 15.204 15.203h199.961c8.398 0 15.204-6.807 15.204-15.203v-0.308c0-8.398-6.807-15.204-15.204-15.204zM611.735 178.226h-199.961c-8.398 0-15.204 6.807-15.204 15.204v0.308c0 8.398 6.807 15.204 15.204 15.204h199.961c8.398 0 15.204-6.807 15.204-15.204v-0.308c0-8.398-6.807-15.204-15.204-15.204zM611.735 239.66h-199.961c-8.398 0-15.204 6.807-15.204 15.203v0.308c0 8.398 6.807 15.204 15.204 15.204h199.961c8.398 0 15.204-6.807 15.204-15.204v-0.308c0-8.396-6.807-15.203-15.204-15.203z" />
<glyph unicode="&#xa937;" glyph-name="identification-for-delivery-with-bars" d="M190.584 528.806h-65.211v388.442h65.211v-388.442zM350.78 917.248h-92.148v-388.442h92.148v388.442zM470.575 917.248h-46.075v-388.442h46.073l0.002 388.442zM632.897 917.248h-107.743v-388.442h107.743v388.442zM727.88 917.248h-26.937v-388.442h26.937v388.442zM803.017 917.248h-35.442v-388.442h35.442v388.442zM900.837 917.248h-69.466v-388.442h69.466v388.442zM894.106 495.139h-62.735v-185.098h62.735v185.098zM1024 528.806h-93.090v-33.668h93.090v33.668zM189.346 499.469h-62.737v-185.098h62.735v185.098zM93.090 528.806h-93.090v-33.668h93.090v33.668zM736.387 393.574v-37.073c0-59.479-18.288-117.519-52.385-166.253l-78.043-111.549v-99.945h-194.217v99.945l-78.043 111.549c-34.097 48.734-52.385 106.774-52.385 166.253v37.073c0 40.043 32.462 72.505 72.505 72.505h310.061c40.046-0.002 72.507-32.463 72.507-72.505zM622.467 371.74h-236.087c23.16-41.313 67.31-69.277 118.043-69.277s94.884 27.963 118.044 69.277z" />
<glyph unicode="&#xa938;" glyph-name="international-calling-service-symbol" d="M523.394 948.607c-187.26 0-350.736-103.416-436.581-256.072 10.451 3.311 21.551 5.317 33.439 5.317 33.524 0 65.846-15.849 96.382-46.718 19.061-6.479 39.121-12.447 60.347-17.647-3.499-16.428-6.367-33.459-8.93-50.747 41.332-72.508 23.176-118.803-10.98-158.719h1.369c0.587-23.836 2.269-47.014 4.548-69.753 13.001-16.787 31.731-38.418 58.398-65.67-8.312 42.647-13.66 88.073-14.96 135.423h192.988v-138.921c-55.335-1.111-108.683-6.239-159.627-14.925 17.232-16.918 32.219-30.67 45.177-41.81 37.080 4.715 75.523 7.605 114.451 8.411v-14.634c16.506 10.255 35.606 17.356 59.175 17.356 10.466 0 21.071-1.566 31.95-4.451 40.91-2.399 80.916-6.981 118.716-13.794-4.896-16.454-10.35-32.164-16.208-47.196 15.024-13.187 27.037-26.559 36.094-40.212 10.603 24.052 20.027 50 28.019 77.694 40.112-9.716 76.29-21.957 107.003-36.121-31.841-39.725-70.499-73.716-114.119-100.35 0.067-0.987 0.274-1.951 0.315-2.941 1.407-33.712-12.725-61.5-30.872-84.689 178.852 76.44 304.515 254.088 304.515 460.561 0 276.039-224.571 500.608-500.606 500.608zM288.432 680.044c-40.922 10.009-77.622 22.577-108.537 37.073 50.101 63.808 117.481 113.415 195.116 141.555-36.401-44.892-66.179-106.185-86.578-178.628zM499.415 471.978h-192.988c1.464 53.322 7.799 104.462 18.044 151.626 55.122-10.401 113.714-16.26 174.945-17.482l-0.002-134.144zM499.415 654.459c-56.441 1.163-111.998 6.42-163.158 15.767 30.638 105.701 81.959 184.844 141.61 212.064 7.133 0.743 14.318 1.3 21.548 1.692v-229.522zM894.732 677.399c37.406-60.331 60.557-130.368 64.641-205.421h-171.015c-1.409 57.17-7.879 111.452-18.542 161.511 47.209 11.565 89.491 26.495 124.916 43.91zM547.371 883.981c7.232-0.392 14.418-0.949 21.554-1.692 59.656-27.221 110.984-106.366 141.62-212.070-51.078-9.347-106.647-14.607-163.173-15.763v229.525zM721.299 267.818c-54.737 10.15-113.85 16.026-173.928 17.271v138.933h193.004c-1.514-55.058-8.234-107.775-19.076-156.204zM547.371 471.978v134.158c60.821 1.247 120.287 7.193 174.957 17.477 10.247-47.166 16.58-98.309 18.046-151.634h-193.003zM671.779 858.669c77.63-28.14 145.007-77.745 195.104-141.546-30.917-14.492-67.603-27.057-108.522-37.073-20.4 72.438-50.178 133.731-86.582 178.62zM892.426 215.005c-35.259 17.105-77.080 31.739-123.544 43.037 11.239 51.28 18.024 107.115 19.476 165.98h171.015c-4.165-76.559-28.205-147.876-66.947-209.017zM653.255 145.077c-100.436 80.719-128.522 41.039-174.092-4.523-31.814-31.826-112.326 34.634-181.844 104.157-69.522 69.53-135.971 150.030-104.159 181.851 45.575 45.566 85.241 73.668 4.503 174.075-80.714 100.448-134.517 23.33-178.663-20.816-50.964-50.946-2.685-240.808 184.958-428.478 187.668-187.647 377.527-235.895 428.463-184.968 44.136 44.149 121.272 97.946 20.835 178.702z" />
<glyph unicode="&#xa939;" glyph-name="international-delivery" d="M920.931 488.463c-30.762-34.53-60.896-71.727-81.928-123.047-9.572-23.699-32.33-39.081-57.915-39.081-25.739 0-48.496 15.382-58.226 39.237-24.33 59.643-61.212 100.29-96.997 139.528-8.945 9.887-17.892 19.776-26.679 29.977-0.47-0.157-0.788-0.315-1.255-0.47-34.843-10.514-61.683-56.658-45.516-94.17 10.986-25.739 88.049-20.875 81.458-76.276-5.493-45.357 53.83-57.285 74.862-55.090 21.032 2.511 53.363-34.53 37.040-50.852-16.163-16.324-46.771-16.951-42.063-59.014 1.255-12.241 38.298-10.673 38.298-29.192 0-18.676-19.146-39.866-4.396-61.368 3.141-4.707 6.435-8.317 9.889-11.142-70.94-65.292-165.582-105.313-269.325-105.313-219.258 0-397.553 178.295-397.553 397.553 0 66.545 16.481 129.327 45.516 184.573-0.157-71.412 37.982-130.739 55.873-148.631 58.385-58.227 142.982-39.864 153.809-88.675 10.986-48.655-58.072-48.812-53.519-86.008 4.707-37.354 94.64-47.243 74.551-81.614-26.525-45.672 17.892-48.968 5.023-105.311-6.905-30.764 37.51-36.727 53.991-13.342 12.556 17.892 10.044 39.866 35.313 66.702 30.919 32.96 102.646 38.296 94.64 92.759-13.653 90.401-101.545 104.528-139.841 125.718-43.475 23.855-32.801 81.142-42.22 108.45-13.183 38.766-57.915-10.831-81.771 11.771-39.237 37.040 7.063 89.461 40.021 88.362 69.528-2.197 90.873-69.843 116.455-67.487 24.956 2.197 41.122 37.040 45.516 55.559 9.261 40.336-15.695 22.287-25.739 43.319-13.498 28.093 47.398 54.931 70.94 75.649 3.611 3.139 6.278 6.121 7.69 8.947 7.066 13.811-2.195 24.327-17.892 33.901-31.388 18.993-88.675 34.058-91.342 63.721-1.571 18.208 33.273 26.995 72.98 28.565 6.591-0.315 13.026-0.942 19.62-1.569 3.295 18.678 8.63 37.041 15.85 54.618-18.991 2.511-38.295 3.768-57.915 3.768-250.177 0-453.739-203.562-453.739-453.739-0.002-250.186 203.562-453.747 453.739-453.747s453.742 203.564 453.742 453.741c0 33.901-3.768 67.017-10.988 98.722zM759.738 958.991c-128.087-12.107-215.816-136.22-193.461-262.924 22.702-128.704 141.369-168.321 200.259-312.792 5.307-13.019 23.637-13.084 28.941-0.064 65.282 160.236 204.089 191.506 204.089 358.243-0.002 127.721-109.563 229.85-239.828 217.536zM781.019 626.040c-63.742 0-115.416 51.672-115.416 115.414s51.674 115.412 115.416 115.412 115.412-51.672 115.412-115.412-51.674-115.414-115.412-115.414z" />
<glyph unicode="&#xa93a;" glyph-name="international-delivery-business" d="M834.947 374.235c-45.702 19.008-105.561 33.568-173.506 42.063 3.91 37.883 5.798 77.247 5.798 116.478s-1.887 78.597-5.798 116.614c67.945 8.493 127.669 23.052 173.371 42.196 23.594-47.859 36.938-101.784 36.938-158.81 0.002-56.892-13.212-110.682-36.802-158.541zM499.125 892.324c4.314 0.136 8.629 0.271 12.942 0.271 4.315 0 8.629-0.136 12.942-0.271 25.617-17.391 58.913-83.314 76.442-194.806-59.993-4.449-121.873-4.044-178.763 0.808 17.659 111.087 50.824 176.74 76.437 193.998zM410.688 532.776c0 40.714 1.887 78.057 5.259 112.031 32.626-2.967 66.598-4.314 101.381-4.314 30.333 0 60.801 1.213 90.729 3.504 3.372-33.837 5.259-70.912 5.259-111.221s-1.887-77.384-5.259-111.089c-29.119 2.428-59.586 3.505-90.729 3.505-34.783 0-68.891-1.349-101.381-4.314-3.372 33.974-5.259 71.319-5.259 111.897zM807.039 738.368c-40.175-15.773-92.481-28.041-152.205-35.455-10.784 70.641-28.58 133.6-52.982 178.358 84.261-21.706 156.654-73.341 205.187-142.903zM422.281 881.269c-24.4-44.489-42.063-106.908-52.982-177.011-58.913 8.088-111.086 21.166-149.912 37.478 48.533 67.812 119.85 118.096 202.894 139.533zM783.705 206.205c95.314 78.461 155.452 193.777 155.452 326.571 0 235.654-191.57 427.224-427.088 427.224-209.905 0-384.76-151.935-420.484-351.729-4.449-24.536-6.741-49.746-6.741-75.495 0-235.661 125.336-420.467 366.984-490.123v-106.653l356.206 205.7-356.206 205.662v-101.023c-194.945 0-298.888 158.071-298.888 308.092 1.081 18.367 3.485 36.389 7.265 53.84 6.606 30.603 16.986 59.722 31.006 86.819 44.489-19.817 103.672-35.186 171.483-44.353-4.044-38.422-5.932-78.192-5.932-117.962 0-39.635 1.887-79.405 5.932-117.829-41.253-5.527-79.27-13.481-112.837-23.321 2.021-2.428 3.775-4.852 5.662-7.28 5.932-7.551 11.46-14.83 17.256-20.358l1.349-1.213 1.213-1.484c4.314-4.851 9.572-9.572 15.368-14.425 24.133 5.798 50.554 10.785 78.597 14.56 3.775-23.999 8.224-47.050 13.481-68.755h0.134c8.763-2.697 16.314-4.989 21.705-5.261h1.618c0 0 3.91-0.403 5.123-0.539v130.5l80.484-46.376c8.493 0.134 16.986 0.268 25.48 0.268 28.849 0 57.162-1.078 84.124-3.1-3.102-19.548-6.606-37.747-10.516-54.464l48.533-28.041c6.067 24.133 11.324 50.151 15.37 77.115 59.855-7.416 112.165-19.684 152.338-35.455-23.862-34.108-53.385-63.901-87.358-88.034l63.888-33.076z" />
</font>
</defs>
</svg>
